<svg width="184" height="184" viewBox="0 0 184 184" fill="none" xmlns="http://www.w3.org/2000/svg">
<g clip-path="url(#clip0_43_4163)">
<path d="M92 184C142.81 184 184 142.81 184 92C184 41.1898 142.81 0 92 0C41.1898 0 0 41.1898 0 92C0 142.81 41.1898 184 92 184Z" fill="#F0F0F0"/>
<path d="M183.997 91.9929C183.997 52.4365 159.03 18.7142 123.997 5.71558V178.271C159.03 165.272 183.997 131.55 183.997 91.9929Z" fill="#6DA544"/>
<path d="M-0.000244141 91.9973C-0.000244141 131.554 24.9663 165.276 59.9999 178.275V5.71997C24.9663 18.7186 -0.000244141 52.4409 -0.000244141 91.9973Z" fill="#FF9811"/>
</g>
<defs>
<clipPath id="clip0_43_4163">
<rect width="184" height="184" fill="white"/>
</clipPath>
</defs>
</svg>
