<svg width="761" height="823" viewBox="0 0 761 823" fill="none" xmlns="http://www.w3.org/2000/svg">
<path fill-rule="evenodd" clip-rule="evenodd" d="M760.866 68.9753V532.252L655.8 606.663L709.354 579.135L525.815 702.349L554.108 672.104L376.863 778.578L520.837 643.287L247.034 796.867L300.063 731.027L153.776 822.471L261.663 701.765L75.147 796.867L102.733 706.878L12.8412 743.982L110.343 674.531L49.9393 691.656L88.4643 648.368L10.4631 691.656L75.147 620.781L88.4643 593.663L-0.00043331 617.923L75.147 576.759V562.085L129.444 511.017L75.147 535.681V515.12L223.742 396.266L92.8249 483.215L231.011 379.036L150.425 398.858L347.83 256.755L155.376 318.616L316.834 207.704L282.769 211.97L418.267 134.746L386.724 162.658L566.768 73.0066L520.714 122.126L605.935 83.7217L624.533 68.9753L702.438 0L663.486 68.9753L706.29 39.9581L684.412 95.614L716.278 68.9753L741.39 39.9581L719.132 93.2356L760.866 68.9753Z" fill="white"/>
<mask id="mask0_176_754" style="mask-type:luminance" maskUnits="userSpaceOnUse" x="26" y="6" width="722" height="793">
<path fill-rule="evenodd" clip-rule="evenodd" d="M747.87 6.5V493.45L637.418 571.664L693.717 542.729L500.769 672.24L530.512 640.449L344.181 752.364L495.535 610.16L207.695 771.587L263.443 702.383L109.657 798.5L223.074 671.626L26.9963 771.587V740.74V709.893V679.045V648.198V617.35V586.503V555.656V540.232V524.808L84.0765 471.131L26.9963 497.055V475.443L183.21 350.515L45.5805 441.908L190.851 332.406L106.134 353.24L313.659 203.875L111.339 268.898L281.074 152.318L245.263 156.802L387.707 75.6318L354.547 104.97L543.821 10.7373L495.406 62.3663L584.073 6.5H604.548H625.022H645.497H665.972H686.446H706.921H747.87Z" fill="white"/>
</mask>
<g mask="url(#mask0_176_754)">
</g>
<path fill-rule="evenodd" clip-rule="evenodd" d="M670.488 606.451C651.419 612.486 654.635 623.477 629.596 620.354C629.596 620.354 606.574 600.522 609.5 589.86L589.574 570.738C572.284 554.133 559.791 548.796 553.531 545.831C552.054 545.132 549.696 543.3 546.876 540.796C538.613 533.43 526.516 520.278 522.047 512.99C521.587 512.227 521.204 511.528 520.914 510.909C516.961 502.342 508.382 492.789 508.382 492.789L465.737 478.095C465.724 478.095 465.42 477.99 464.879 477.832C464.511 477.713 464.024 477.581 463.457 477.423C463.074 477.318 462.667 477.199 462.233 477.094C461.296 476.843 460.255 476.58 459.2 476.354C456.433 475.762 453.586 475.38 452.388 475.986C451.846 476.263 451.226 476.29 450.555 476.159C448 475.683 444.717 472.916 442.279 472.916C440.948 472.916 431.868 470.518 420.85 468.356C417.505 467.684 413.985 467.051 410.441 466.498C408.595 466.222 406.737 465.957 404.905 465.733C402.679 465.457 400.478 465.233 398.343 465.087C397.499 466.59 396.657 468.067 395.773 469.516C377.969 499.312 354.867 518.816 354.867 518.816L348.806 514.242C348.173 514.797 347.567 515.284 347.013 515.719V515.733C346.421 516.179 345.881 516.575 345.391 516.892C345.169 517.036 344.957 517.168 344.758 517.273C342.268 518.685 339.83 520.055 337.498 521.398C330.383 525.471 324.242 529.226 320.603 532.784C318.877 534.458 316.15 536.039 313.091 537.384H313.078C307.569 539.809 300.994 541.442 297.318 541.442C291.611 541.442 277.997 519.475 269.644 516.405C261.301 513.321 246.37 503.66 246.37 503.66H240.216L229.238 493.71V489.6C229.238 489.6 211.237 471.19 196.899 456.891C196.49 456.482 196.083 456.074 195.686 455.68L181.124 444.358H175.643C175.643 444.358 175.049 444.041 174.087 443.568C171.57 442.355 166.469 440.063 162.463 439.523C156.916 438.784 133.471 454.467 125.564 456.654C117.657 458.856 134.353 424.157 139.626 417.567C141.497 415.234 144.581 412.284 147.823 409.159C153.726 403.48 160.144 397.22 160.711 392.964C161.581 386.375 179.595 383.739 184.208 389.669C188.821 395.6 199.362 416.342 204.199 421.56C205.503 422.97 204.516 424.091 202.419 424.987L203.897 426.015L205.042 426.805L207.178 428.281L219.394 436.768C250.152 455.982 273.069 461.516 280.633 467.645C289.858 475.102 296.883 486.095 300.836 486.964C301.706 487.162 303.17 486.477 304.948 485.277C305.791 484.711 306.714 484.025 307.662 483.26L304.157 480.611C304.144 480.599 304.13 480.599 304.13 480.599C304.13 480.599 304.144 480.599 304.157 480.585C304.473 480.388 307.082 478.649 310.404 475.603C313.79 472.48 317.902 468.027 321.052 462.479C323.595 457.985 325.506 452.779 325.875 446.994C325.955 445.809 326.111 444.557 326.362 443.252C327.154 438.996 328.786 434.146 330.883 429.126C328.615 422.707 334.441 415.366 334.441 415.366C334.441 415.366 333.268 414.708 333.136 412.006C333.056 410.425 333.348 408.119 334.441 404.825C335.745 400.896 339.817 395.746 343.969 391.225C335.918 385.65 332.082 382.105 330.632 379.799C326.797 373.684 339.608 376.149 335.351 372.512C328.3 366.462 327.799 360.426 329.816 352.375C331.831 344.322 312.696 335.257 306.161 299.03C302.799 280.435 305.014 266.492 307.952 257.32C300.756 252.655 293.075 245.934 286.063 239.068C281.398 237.526 277.286 234.773 273.834 231.65C264.99 231.003 253.131 223.663 241.191 214.095C236.75 210.538 232.283 206.663 227.973 202.723L227.934 202.684C217.102 192.787 207.178 182.415 200.589 175.273C196.517 171.03 193.934 167.999 192.906 166.774C192.576 166.365 192.404 166.153 192.404 166.153C192.404 166.153 192.286 165.534 192.195 164.572C186.659 162.372 180.742 159.854 179.436 158.721C173.166 153.226 167.076 152.461 167.076 152.461C167.076 152.461 166.141 148.785 171.531 150.313C173.968 151.012 179.385 150.695 182.165 150.471C178.501 146.729 170.041 144.488 170.041 144.488H163.123C158.563 151.302 156.203 147.849 156.203 147.849L161.145 141.26C161.145 141.26 165.929 140.021 171.227 139.059C169.765 138.742 168.17 138.729 166.469 139.231C156.916 142.077 159.169 137.94 159.169 137.94L168.394 135L182.337 138.004C182.93 138.058 183.456 138.15 183.877 138.294C188.807 139.943 200.641 151.051 202.21 151.051H202.224L205.781 154.807L207.52 156.639C207.534 156.639 211.644 156.877 215.994 159.393H216.006C217.748 160.407 219.526 161.766 221.094 163.637C221.898 164.585 222.398 165.086 222.78 165.362C225.048 166.984 223.506 160.5 256.953 186.988C264.424 190.203 272.582 192.972 280.923 195.357C290.649 198.137 300.653 200.404 310.126 202.222C321.632 196.517 339.883 202.894 339.883 202.894C339.883 202.894 339.883 201.379 351.454 202.894C353.403 203.145 355.855 204.212 358.596 205.834C359.611 206.426 360.679 207.111 361.773 207.849L367.334 202.144L367.887 201.576L370.524 198.875C368.283 196.899 366.662 194.21 366.082 191.272C366.411 192.892 367.611 194.315 369.166 194.895C367.558 192.985 366.847 190.349 367.268 187.884C368.242 188.793 369.233 189.691 370.206 190.586C369.338 188.332 369.521 185.697 370.695 183.589C370.259 182.917 369.838 182.245 369.404 181.572C370.101 180.729 371.024 180.07 372.039 179.675C370.668 178.739 369.311 177.816 367.954 176.893C368.927 176.143 370.127 175.668 371.353 175.524C371.051 174.72 370.325 174.087 369.482 173.889C370.167 172.849 371.301 172.111 372.527 171.899C371.156 170.409 370.617 168.209 371.129 166.258C372.342 166.167 372.948 164.348 372.039 163.557C373.37 163.649 374.463 162.49 374.727 161.238C374.885 160.526 374.78 159.788 374.319 159.208C375.504 159.091 376.678 158.958 377.864 158.84C377.179 157.443 376.48 156.046 375.794 154.649C377.52 154.108 379.314 153.793 381.133 153.713C381.369 152.646 380.775 151.447 379.788 150.985C382.779 149.153 386.284 148.218 389.79 148.298C389.895 147.019 389.987 145.728 390.094 144.435L399.292 147.216C400.741 147.665 403.139 147.243 402.666 145.794C403.719 145.833 404.734 146.4 405.326 147.27C406.052 147.006 406.605 146.281 406.658 145.504C407.806 146.571 408.793 147.823 409.584 149.18C411.072 149.009 412.615 149.932 413.155 151.328C413.971 150.208 414.288 148.732 413.971 147.389C415.435 148.995 416.7 150.788 417.727 152.712C418.572 152.054 419.401 151.394 420.244 150.736C420.773 151.645 421.286 152.566 421.814 153.476C422.908 151.737 423.856 149.905 424.62 147.994C425.569 150.286 426.623 152.554 427.77 154.755C428.243 155.664 428.732 156.56 429.234 157.443C429.627 156.982 430.011 156.507 430.406 156.046C430.866 157.51 431.342 158.984 431.802 160.46C432.672 160.553 433.555 160.448 434.386 160.183C434.36 161.305 434.333 162.424 434.32 163.557C434.834 163.61 435.361 163.663 435.887 163.729C435.94 164.915 435.677 166.114 435.11 167.155C435.967 168.684 435.874 170.687 434.886 172.136C435.796 171.385 436.915 170.872 438.089 170.674C438.537 173.322 437.153 175.892 435.809 178.211L434.966 179.687C435.058 179.714 435.136 179.753 435.242 179.753C434.715 180.518 434.175 181.27 433.648 182.033C434.372 182.481 435.097 182.917 435.821 183.365C434.267 184.393 432.515 186.396 433.727 187.818C433.002 188.965 432.225 190.059 431.393 191.126C431.38 191.351 431.38 191.587 431.354 191.811C431.025 196.833 429.391 202.288 427.203 207.559V215.466L423.83 214.821C420.363 221.595 416.528 227.446 414.209 230.78V230.793C412.918 232.651 412.115 233.719 412.115 233.719C407.054 233.389 402.666 230.912 399.185 229.673C397.473 229.054 395.984 228.751 394.745 229.132C394.153 229.317 393.611 229.673 393.137 230.226C393.005 230.752 392.874 231.28 392.755 231.808V231.821C392.543 232.73 392.359 233.653 392.189 234.549L392.202 234.562C393.044 235.406 393.875 236.261 394.693 237.132C394.772 237.211 394.837 237.277 394.89 237.343C399.609 242.351 403.852 247.661 406.79 252.972C408.227 255.554 409.794 258.665 411.469 262.131C422.669 285.535 437.838 325.28 440.605 332.568C447.696 337.628 460.056 346.801 458.923 348.475C457.33 350.806 472.88 357.909 471.746 360.177C470.666 362.338 482.539 373.46 496.799 382.644C497.457 383.067 498.129 383.489 498.801 383.91C499.961 384.2 501.24 384.516 502.582 384.86C509.383 386.599 517.738 388.785 520.571 389.88C520.914 389.998 521.164 390.117 521.336 390.21C524.025 391.698 529.809 401.069 529.809 401.069L529.547 411.307C529.547 411.307 527.807 410.571 526.015 409.068L525.343 415.288C525.343 415.288 522.733 415.604 522.982 413.324L521.969 410.674L516.539 414.247L504.89 416.328C504.89 416.328 503.096 414.247 507.577 412.152L501.911 409.766C502.214 405.799 508.435 409.239 505.193 407.078C504.494 406.616 501.807 405.719 498.552 404.284C495.283 402.847 491.447 400.857 488.47 398.209C488.47 398.209 488.113 398.038 487.442 397.707C487.007 397.484 486.426 397.206 485.728 396.852C485.372 396.68 484.977 396.482 484.554 396.272C467.609 391.172 457.288 382.487 457.288 382.487C453.837 382.091 450.41 381.235 447.063 380.049L447.023 380.037C436.179 376.201 426.202 368.9 419.032 362.681C418.928 364.723 419.15 366.844 419.876 368.98C421.115 372.656 425.805 376.834 430.05 380.695C435.638 385.808 440.422 390.407 435.466 392.74C442.515 396.496 456.631 404.297 470.627 413.707C483.686 422.496 496.64 432.67 503.651 442.277C504.165 442.974 504.639 443.673 505.086 444.358C505.086 444.358 516.301 447.654 520.585 450.618C521.837 451.475 523.431 453.926 525.131 456.998C527.267 460.858 529.573 465.696 531.588 469.569L534.382 472.508L548.298 487.123C548.298 487.135 548.311 487.135 548.311 487.135L552.003 491.023L554.571 493.71L560.449 496.742L570.399 506.837L583.841 520.463L587.794 525.734L624.878 567.022H630.295C630.295 567.022 630.914 567.774 631.968 568.88C634.538 571.606 639.664 576.523 644.133 577.459C650.392 578.777 657.64 582.401 657.64 582.401C657.64 582.401 679.647 581.069 691.561 581.294C695.343 581.36 698.098 581.596 698.822 582.071C701.787 584.048 680.82 603.182 670.488 606.451" fill="#B23D3D"/>
<path fill-rule="evenodd" clip-rule="evenodd" d="M529.805 402.139L529.583 411.219L529.542 412.604C529.542 412.604 527.806 411.852 526.017 410.315L525.345 416.674C525.345 416.674 522.739 416.997 522.988 414.666L521.975 411.959L519.7 413.482V413.495L516.554 415.611L504.921 417.737C504.921 417.737 503.13 415.611 507.604 413.468L501.946 411.03C502.011 410.168 502.341 409.656 502.788 409.36C502.946 409.238 503.118 409.157 503.301 409.103C503.327 409.089 503.34 409.077 503.367 409.077C503.643 408.996 503.933 408.956 504.223 408.942C505.749 408.888 507.143 409.589 505.222 408.281C504.524 407.81 501.841 406.894 498.59 405.427C495.326 403.958 491.497 401.922 488.522 399.217C488.522 399.217 488.168 399.04 487.497 398.704C487.062 398.475 486.483 398.192 485.786 397.828C490.575 394.596 497.103 389.745 502.617 385.57C509.407 387.349 517.752 389.584 520.581 390.702C520.791 390.782 520.976 390.85 521.12 390.918C521.211 390.971 521.277 390.999 521.343 391.039C521.502 391.12 521.66 391.24 521.831 391.375C521.831 391.375 521.843 391.389 521.884 391.417C524.225 393.316 528.094 399.377 529.371 401.438C529.649 401.882 529.805 402.139 529.805 402.139" fill="#E8B485"/>
<path fill-rule="evenodd" clip-rule="evenodd" d="M570.437 507.48L547.037 541.329C537.951 533.225 524.213 518.067 521.211 511.538C517.277 503.001 508.743 493.479 508.743 493.479L466.321 478.833C466.309 478.833 466.005 478.73 465.469 478.571L479.693 457.49L504.038 443.133C504.549 443.829 505.02 444.526 505.466 445.209C505.466 445.209 516.622 448.493 520.882 451.448C522.127 452.301 523.715 454.744 525.406 457.806C527.531 461.652 529.824 466.474 531.829 470.335L534.608 473.265L554.692 494.399L560.54 497.418L570.437 507.48Z" fill="#E8B485"/>
<path fill-rule="evenodd" clip-rule="evenodd" d="M345.262 516.674C345.04 516.818 344.828 516.951 344.629 517.057C342.141 518.473 339.705 519.849 337.374 521.199C330.264 525.289 324.127 529.061 320.491 532.634C317.805 535.267 312.655 537.663 307.651 539.264C303.662 540.547 299.749 541.329 297.221 541.329C291.519 541.329 277.914 519.268 269.567 516.185C261.229 513.087 246.308 503.385 246.308 503.385H240.159L229.189 493.393V489.265C229.189 489.265 211.199 470.777 196.871 456.417C196.464 456.006 196.055 455.596 195.66 455.199L188.944 449.945L181.108 443.83H175.958L205.01 426.202L207.144 427.685L219.351 436.206C242.938 451.016 261.901 457.727 272.871 462.835C276.204 464.383 278.784 465.787 280.549 467.215C281.471 467.957 282.352 468.738 283.222 469.533L283.236 469.559C283.841 470.102 284.434 470.67 285.014 471.239C292.044 478.135 297.459 485.889 300.736 486.618C301.607 486.817 303.068 486.129 304.847 484.924C305.688 484.355 306.611 483.667 307.558 482.899L304.055 480.238C304.043 480.225 304.03 480.225 304.03 480.225C304.03 480.225 304.043 480.225 304.055 480.212C304.371 480.014 306.979 478.268 310.299 475.208L345.262 516.674Z" fill="#E8B485"/>
<path fill-rule="evenodd" clip-rule="evenodd" d="M204.741 155.054L191.991 167.168C191.663 166.754 191.493 166.541 191.493 166.541C191.493 166.541 191.376 165.914 191.285 164.94C185.803 162.712 179.943 160.164 178.651 159.016C172.44 153.453 166.409 152.679 166.409 152.679C166.409 152.679 165.483 148.957 170.82 150.504C173.235 151.212 178.6 150.891 181.353 150.664C177.725 146.875 169.347 144.606 169.347 144.606H162.494C157.978 151.504 155.643 148.009 155.643 148.009L160.313 141.631L160.537 141.338C160.537 141.338 165.273 140.084 170.521 139.108C169.071 138.789 167.494 138.775 165.809 139.283C156.347 142.165 158.578 137.975 158.578 137.975L167.714 135L181.522 138.042C182.11 138.095 182.631 138.189 183.049 138.335C183.533 138.509 184.094 138.763 184.708 139.108C190.176 142.138 199.808 151.251 201.204 151.251H201.218L204.741 155.054Z" fill="#E8B485"/>
<path fill-rule="evenodd" clip-rule="evenodd" d="M433.807 182.928C434.539 183.378 435.27 183.814 436.002 184.264C435.657 184.503 435.284 184.782 434.952 185.085C433.793 186.171 432.942 187.626 433.888 188.739C433.155 189.891 432.37 190.99 431.531 192.062C431.517 192.287 431.517 192.526 431.491 192.751C431.159 197.795 429.509 203.276 427.299 208.571V216.514L423.893 215.864C420.392 222.669 416.519 228.547 414.177 231.897V231.909C412.873 233.777 412.063 234.849 412.063 234.849C407.757 240.043 402.521 232.029 399.006 230.784C397.277 230.162 395.773 229.857 394.523 230.241C393.925 230.427 393.377 230.784 392.899 231.34C392.765 231.87 392.633 232.4 392.513 232.93L366.842 203.129L370.063 199.847C367.8 197.861 366.164 195.16 365.578 192.207C365.911 193.836 367.122 195.266 368.692 195.849C367.069 193.928 366.351 191.282 366.776 188.806C367.759 189.719 368.759 190.619 369.743 191.519C368.866 189.255 369.051 186.609 370.236 184.49C369.796 183.814 369.371 183.139 368.932 182.464C369.637 181.617 370.568 180.954 371.593 180.557C370.209 179.618 368.838 178.691 367.468 177.764C368.451 177.011 369.662 176.534 370.901 176.387C370.596 175.58 369.863 174.944 369.011 174.746C369.703 173.7 370.848 172.958 372.086 172.747C370.702 171.251 370.157 169.04 370.675 167.081C371.899 166.989 372.511 165.162 371.593 164.368C373.683 164.513 375.199 161.614 373.895 159.998C375.093 159.879 376.278 159.746 377.476 159.628C376.783 158.224 376.078 156.82 375.386 155.417C377.128 154.875 378.94 154.557 380.777 154.478C381.015 153.406 380.415 152.2 379.418 151.738C382.438 149.898 385.978 148.957 389.519 149.037C389.625 147.754 389.717 146.455 389.825 145.158L399.114 147.951C400.577 148.401 402.999 147.979 402.521 146.522C403.585 146.562 404.609 147.132 405.207 148.004C405.94 147.74 406.499 147.011 406.552 146.23C407.712 147.302 408.709 148.56 409.507 149.925C411.01 149.751 412.568 150.678 413.113 152.082C413.937 150.956 414.257 149.473 413.937 148.123C415.415 149.739 416.693 151.539 417.73 153.471C418.583 152.81 419.421 152.149 420.272 151.486C420.806 152.399 421.324 153.326 421.857 154.24C422.962 152.491 423.919 150.652 424.69 148.733C425.649 151.036 426.713 153.313 427.871 155.525C428.349 156.438 428.843 157.338 429.348 158.224C429.747 157.762 430.134 157.285 430.533 156.82C430.998 158.291 431.479 159.773 431.943 161.256C432.822 161.349 433.713 161.242 434.552 160.978C434.527 162.104 434.499 163.229 434.486 164.368C435.005 164.42 435.537 164.473 436.069 164.54C436.122 165.731 435.856 166.936 435.284 167.982C436.149 169.518 436.055 171.529 435.058 172.986C435.976 172.231 437.107 171.714 438.292 171.515C438.744 174.177 437.346 176.759 435.988 179.088L435.138 180.571C435.229 180.598 435.31 180.637 435.417 180.637C434.885 181.404 434.34 182.159 433.807 182.928" fill="#E8B485"/>
<path fill-rule="evenodd" clip-rule="evenodd" d="M506.102 445.221L469.473 463.255L460.092 477.063C457.317 476.474 454.461 476.094 453.262 476.697C452.718 476.972 452.097 476.997 451.423 476.867C448.861 476.394 445.57 473.641 443.126 473.641C441.79 473.641 432.687 471.254 421.639 469.103C418.284 468.434 414.755 467.805 411.2 467.253C409.35 466.979 407.488 466.716 405.651 466.493C403.417 466.218 401.21 465.995 399.071 465.85C398.224 467.345 397.379 468.814 396.494 470.256C378.642 499.908 355.478 519.32 355.478 519.32L349.4 514.768L308.145 483.936L304.631 481.299V481.273C305.252 480.867 315.32 474.205 321.571 463.255C324.121 458.781 326.037 453.601 326.407 447.844C326.486 446.664 326.644 445.418 326.896 444.12C327.688 439.884 329.326 435.058 331.429 430.06C329.155 423.674 334.996 416.369 334.996 416.369C334.996 416.369 333.82 415.712 333.688 413.024C333.608 411.451 333.899 409.157 334.996 405.876C336.304 401.968 340.386 396.841 344.55 392.342L436.294 393.851C443.362 397.587 457.516 405.353 471.548 414.716C485.595 424.093 499.509 435.07 506.102 445.221" fill="#023297"/>
<path fill-rule="evenodd" clip-rule="evenodd" d="M387.588 240.315C387.588 240.315 360.551 258.675 358.541 269.167C356.53 279.657 357.423 269.167 357.423 269.167C357.423 269.167 355.385 256.052 361.767 246.872C368.149 237.693 387.588 240.315 387.588 240.315" fill="#FF5858"/>
<path fill-rule="evenodd" clip-rule="evenodd" d="M368.966 227.162C368.966 227.162 347.713 217.763 344.923 213.991C342.13 210.218 334.618 217.098 337.409 219.095C340.199 221.091 345.136 231.235 368.966 227.162" fill="#FF5858"/>
<path fill-rule="evenodd" clip-rule="evenodd" d="M325.051 221.374C329.23 220.597 337.342 235.62 345.463 236.711C353.584 237.804 366.314 235.182 368.727 236.711C371.141 238.241 354.461 246.944 350.071 257.558C345.682 268.17 315.832 264.893 316.491 248.289C317.149 231.687 318.247 222.639 325.051 221.374Z" fill="#FF5858"/>
<path fill-rule="evenodd" clip-rule="evenodd" d="M309.632 260.436C310.398 258.506 314.868 275.638 326.864 276.078C338.862 276.52 351.077 287.977 350.205 291.942C349.332 295.909 332.754 288.419 324.683 293.265C316.613 298.112 342.577 310.011 342.247 314.638C341.915 319.265 366.101 329.178 361.643 333.475C357.183 337.772 332.027 338.97 320.976 326.535C309.923 314.099 301.344 281.367 309.632 260.436" fill="#FF5858"/>
<path fill-rule="evenodd" clip-rule="evenodd" d="M330.026 357.785C330.066 348.67 337.824 345.893 347.309 346.789C356.796 347.688 377.755 360.252 388.787 367.882C399.817 375.511 434.675 382.242 427.175 385.16C419.674 388.077 329.951 375.061 330.026 357.785" fill="#FF5858"/>
<path fill-rule="evenodd" clip-rule="evenodd" d="M362.459 279.069C361.059 272.095 364.75 256.387 384.086 255.286C403.42 254.184 412.701 264.755 412.781 267.177C412.859 269.6 390.22 260.792 384.086 264.094C377.952 267.397 381.463 274.371 389.367 273.637C397.272 272.903 409.298 268.058 411.956 270.04C414.617 272.023 411.761 289.42 410.883 295.805C410.005 302.191 414.107 309.017 416.997 304.394C419.886 299.77 415.494 285.015 417.908 285.235C420.324 285.455 438.548 321.792 434.376 326.856C430.204 331.921 399.686 319.148 395.295 310.119C390.905 301.091 391.344 286.337 382.78 289.64C374.218 292.943 363.873 286.116 362.459 279.069" fill="#FF5858"/>
<path fill-rule="evenodd" clip-rule="evenodd" d="M416.371 340.736C416.371 340.736 438.785 344.164 439.893 336.472C439.893 336.472 456.954 346.377 455.182 349.535C453.408 352.694 430.517 354.273 416.371 340.736" fill="#FF5858"/>
<path fill-rule="evenodd" clip-rule="evenodd" d="M440.073 355.29C440.073 355.29 455.859 357.414 459.467 353.402C459.467 353.402 474.576 359.776 466.459 364.025C458.34 368.275 444.119 360.548 440.073 355.29" fill="#FF5858"/>
<path fill-rule="evenodd" clip-rule="evenodd" d="M441.767 368.139C441.767 368.139 457.885 372.269 471.391 366.947L479.013 373.207C479.013 373.207 450.294 380.668 441.767 368.139" fill="#FF5858"/>
<path fill-rule="evenodd" clip-rule="evenodd" d="M479.012 382.337L485.476 377.104L494.249 382.337L488.246 385.57L479.012 382.337Z" fill="#FF5858"/>
<path fill-rule="evenodd" clip-rule="evenodd" d="M337.942 418.021C337.942 418.021 391.067 411.84 416.37 400.807C416.37 400.807 348.139 429.056 337.942 425.966C327.747 422.876 337.942 418.021 337.942 418.021" fill="#0448D8"/>
<path fill-rule="evenodd" clip-rule="evenodd" d="M333.561 433.977C333.561 433.977 361.53 429.785 379.123 421.124C379.123 421.124 330.376 452.301 333.561 433.977" fill="#0448D8"/>
<path fill-rule="evenodd" clip-rule="evenodd" d="M436.492 399.114C436.492 399.114 376.264 452.636 336.798 463.449C336.798 463.449 452.854 418.774 472.241 421.833C472.241 421.833 458.724 412.61 450.281 413.508C441.841 414.405 418.05 429.697 419.813 424.891C421.575 420.085 443.298 407.443 456.27 410.418C456.27 410.418 442.597 400.425 436.492 399.114" fill="#0448D8"/>
<path fill-rule="evenodd" clip-rule="evenodd" d="M446.845 440.789C446.845 440.789 462.608 422.327 486.908 429.586C486.908 429.586 489.768 432.779 497.636 438.536C497.636 438.536 472.023 448.237 460.967 460.063C460.967 460.063 449.252 457.435 460.967 444.95C472.679 432.464 446.845 440.789 446.845 440.789" fill="#0448D8"/>
<path fill-rule="evenodd" clip-rule="evenodd" d="M416.347 443.133C417.254 444.021 390.699 463.712 379.734 466.972C368.768 470.233 314.144 482.673 316.558 480.008C318.972 477.342 416.347 443.133 416.347 443.133" fill="#0448D8"/>
<path fill-rule="evenodd" clip-rule="evenodd" d="M507.794 449.905L512.831 463.321L522.017 470.221C522.017 470.221 528.693 451.081 507.794 449.905" fill="#F4C7A2"/>
<path fill-rule="evenodd" clip-rule="evenodd" d="M419.756 180.813C419.756 180.813 411.981 206.9 412.74 210.626C414.661 220.055 407.721 234.889 407.721 234.889L405.463 222.372C405.463 222.372 396.872 203.976 394.594 205.189C392.317 206.391 386.784 223.247 386.784 223.247L373.285 205.189L369.056 202.056L371.66 199.379C369.445 197.421 367.845 194.757 367.271 191.845C367.597 193.451 368.781 194.862 370.318 195.436C368.731 193.543 368.027 190.931 368.444 188.49C369.406 189.391 370.383 190.279 371.347 191.166C370.487 188.934 370.67 186.322 371.829 184.233C371.398 183.567 370.983 182.902 370.552 182.236C371.241 181.401 372.154 180.747 373.155 180.355C371.801 179.428 370.462 178.515 369.121 177.601C370.083 176.856 371.268 176.385 372.478 176.243C372.179 175.446 371.464 174.819 370.629 174.624C371.306 173.592 372.426 172.861 373.639 172.652C372.283 171.177 371.75 168.995 372.258 167.064C373.456 166.973 374.054 165.171 373.155 164.386C374.47 164.479 375.551 163.329 375.811 162.089L419.756 180.813Z" fill="#B57F57"/>
<path fill-rule="evenodd" clip-rule="evenodd" d="M433.807 183.113C434.539 183.566 435.27 184.004 436.002 184.456C435.657 184.696 435.284 184.977 434.952 185.282L431.438 185.521L426.78 193.942L413.99 200.009C414.816 199.503 417.997 197.162 413.805 193.942C409.041 190.298 404.623 203.96 404.623 203.96L401.975 200.116L400.498 204.798L397.183 200.116L395.838 204.798L390.848 200.116V207.805L388.854 204.798L386.857 209.494C378.646 201.964 370.063 200.116 370.063 200.116C367.8 198.12 366.164 195.406 365.578 192.438C365.911 194.075 367.122 195.512 368.692 196.098C367.069 194.168 366.351 191.508 366.776 189.02C367.759 189.938 368.759 190.842 369.743 191.747C368.866 189.472 369.051 186.812 370.236 184.684C369.796 184.004 369.371 183.326 368.932 182.648C369.637 181.796 370.568 181.13 371.593 180.731C370.209 179.788 368.838 178.856 367.468 177.924C368.451 177.167 369.662 176.688 370.901 176.541C370.596 175.729 369.863 175.09 369.011 174.892C369.703 173.84 370.848 173.095 372.086 172.883C370.702 171.379 370.157 169.158 370.675 167.188C371.899 167.096 372.511 165.26 371.593 164.462C372.631 164.527 373.536 163.849 374.015 162.931C374.495 162.027 374.548 160.883 373.895 160.071C375.093 159.951 376.278 159.818 377.476 159.699C376.783 158.288 376.078 156.877 375.386 155.468C377.128 154.923 378.94 154.603 380.777 154.524C381.015 153.447 380.415 152.235 379.418 151.77C382.438 149.921 385.978 148.976 389.519 149.056C389.625 147.766 389.717 146.462 389.825 145.158L399.114 147.965C400.577 148.417 402.999 147.992 402.521 146.528C403.585 146.569 404.609 147.141 405.207 148.018C405.755 147.818 406.206 147.366 406.406 146.821C406.485 146.634 406.538 146.436 406.552 146.235C407.712 147.313 408.709 148.577 409.507 149.948C411.01 149.774 412.568 150.705 413.113 152.116C413.937 150.984 414.257 149.494 413.937 148.138C415.415 149.762 416.693 151.57 417.73 153.512C418.583 152.848 419.421 152.183 420.272 151.517C420.806 152.435 421.324 153.366 421.857 154.284C422.962 152.527 423.919 150.679 424.69 148.751C425.649 151.065 426.713 153.353 427.871 155.576C428.349 156.493 428.843 157.398 429.348 158.288C429.747 157.824 430.134 157.345 430.533 156.877C430.998 158.355 431.479 159.845 431.943 161.335C432.822 161.429 433.713 161.321 434.552 161.056C434.527 162.188 434.499 163.318 434.486 164.462C435.005 164.515 435.537 164.568 436.069 164.635C436.122 165.832 435.856 167.043 435.284 168.094C436.149 169.637 436.055 171.658 435.058 173.122C435.976 172.364 437.107 171.845 438.292 171.645C438.744 174.32 437.346 176.914 435.988 179.255L435.138 180.745C435.229 180.772 435.31 180.812 435.417 180.812C434.885 181.583 434.34 182.341 433.807 183.113" fill="#F9AE40"/>
<path fill-rule="evenodd" clip-rule="evenodd" d="M186.116 138.942C186.116 138.942 183.534 138.002 180.444 138.84C178.205 139.448 171.537 138.942 171.537 138.942C170.047 138.635 168.425 138.622 166.694 139.108C156.97 141.873 159.263 137.854 159.263 137.854L168.652 135L182.842 137.918C183.447 137.969 183.982 138.06 184.412 138.2C184.909 138.365 185.486 138.609 186.116 138.942" fill="#B57F57"/>
<path fill-rule="evenodd" clip-rule="evenodd" d="M521.117 395.735C521.123 395.41 526.849 406.257 526.392 407.195C525.935 408.133 524.905 410.007 523.075 408.966C521.245 407.924 519.646 398.131 519.646 398.131C519.646 398.131 521.103 396.567 521.117 395.735" fill="#F4C7A2"/>
<path fill-rule="evenodd" clip-rule="evenodd" d="M517.701 399.114L519.646 410.115C519.646 410.115 518.446 412.658 517.136 412.658C515.827 412.658 516.372 400.885 516.372 400.885C516.372 400.885 517.502 399.758 517.701 399.114" fill="#F4C7A2"/>
<path fill-rule="evenodd" clip-rule="evenodd" d="M514.567 402.5C514.567 402.5 513.655 409.925 512.484 410.644C511.313 411.367 509.488 410.644 509.488 410.644C509.488 410.644 512.614 404.872 512.614 403.634C512.614 403.634 513.787 403.428 514.567 402.5" fill="#F4C7A2"/>
<path fill-rule="evenodd" clip-rule="evenodd" d="M529.803 400.755C529.189 402.418 528.125 402.5 528.125 402.5L523.031 393.707C523.363 392.909 523.031 390.649 523.031 390.649C523.031 390.649 523.042 390.663 523.078 390.691C525.181 392.598 528.656 398.685 529.803 400.755" fill="#F4C7A2"/>
<path fill-rule="evenodd" clip-rule="evenodd" d="M503.272 408.567C503.45 408.433 503.644 408.344 503.851 408.284C503.704 408.389 503.495 408.478 503.272 408.567" fill="#B57F57"/>
<path fill-rule="evenodd" clip-rule="evenodd" d="M515.353 408.819C515.397 408.478 515.442 408.196 515.471 408.032C515.458 408.196 515.412 408.478 515.353 408.819" fill="#B57F57"/>
<path fill-rule="evenodd" clip-rule="evenodd" d="M516.259 413.925L504.758 416.045C504.758 416.045 502.988 413.925 507.411 411.791C507.411 411.791 512.447 412.944 513.32 411.602C513.905 410.692 514.295 408.732 514.491 407.579C514.281 409.201 514.164 412.569 516.259 413.925" fill="#B57F57"/>
<path fill-rule="evenodd" clip-rule="evenodd" d="M521.34 390.78L520.798 394.074C520.798 394.074 517.832 396.161 518.11 398.012C518.11 398.012 517.155 397.578 515.897 398.889C514.627 400.202 514.627 401.241 514.627 401.241C514.627 401.241 513.754 399.876 513.091 400.099C512.43 400.308 508.893 409.272 508.893 409.272C508.893 409.272 505.979 408.392 504.338 408.34C505.874 408.287 507.277 408.97 505.344 407.696C504.641 407.238 501.941 406.344 498.67 404.915C495.385 403.484 491.533 401.502 488.539 398.865C488.539 398.865 488.183 398.695 487.508 398.365C487.071 398.142 486.487 397.867 485.786 397.514C490.605 394.363 497.173 389.638 502.722 385.57C509.554 387.303 517.951 389.481 520.798 390.57C521.009 390.65 521.195 390.715 521.34 390.78" fill="#B57F57"/>
<path fill-rule="evenodd" clip-rule="evenodd" d="M529.804 410.536L529.764 411.935C529.764 411.935 526.54 412.925 526.138 409.624L525.449 416.042C525.449 416.042 521.662 416.209 521.918 413.857L521.986 411.282L519.646 412.82L520.551 409.204C520.551 409.204 522.485 410.548 523.379 411.012C524.284 411.473 526.76 408.401 526.76 408.401L526.219 402.5C526.327 403.317 527.234 409.624 529.804 410.536" fill="#B57F57"/>
<path fill-rule="evenodd" clip-rule="evenodd" d="M421.449 173.646L415.697 179.157V182.965L411.474 179.937L407.197 184.693L405.179 181.444L401.472 189.177L396.72 184.265L393.514 187.942L391.984 181.237L386.481 186.863L382.733 180.586L377.244 184.265V181.016L372.849 181.665L374.828 178.845L370.658 175.816L375.489 174.296C375.489 174.296 372.532 171.957 371.477 169.318L373.719 169.969L373.284 166.576H376.807C376.807 166.576 375.343 165.082 373.746 162.521C374.222 161.638 374.275 160.52 373.629 159.727C374.816 159.61 375.99 159.479 377.178 159.364C376.491 157.985 375.792 156.607 375.105 155.23C376.833 154.698 378.63 154.385 380.451 154.308C380.687 153.256 380.094 152.071 379.104 151.618C382.1 149.811 385.61 148.887 389.121 148.966C389.225 147.706 389.317 146.431 389.424 145.158L398.634 147.9C400.086 148.342 402.487 147.926 402.013 146.497C403.068 146.535 404.084 147.094 404.676 147.952C405.22 147.757 405.668 147.315 405.867 146.783L407.197 152.202L408.94 149.838L411.474 155.335L414.192 153.294V159.349L418.587 158.051L416.832 165.641H419.907L415.697 173.646H421.449Z" fill="#FFDC15"/>
<path fill-rule="evenodd" clip-rule="evenodd" d="M629.691 567.506C610.233 570.256 608.876 590.427 608.876 590.427L588.929 571.236C571.622 554.57 559.117 549.212 552.851 546.236C551.372 545.536 549.012 543.697 546.189 541.184C537.918 533.789 525.808 520.588 521.337 513.275C531.624 507.495 542.548 501.729 545.924 501.237C552.851 500.221 553.892 493.924 553.892 493.924L559.776 496.965L569.735 507.098L583.191 520.774L587.15 526.064L624.269 567.506H629.691Z" fill="#CFD1D2"/>
<path fill-rule="evenodd" clip-rule="evenodd" d="M280.928 467.957C251.8 472.478 246.627 504.082 246.627 504.082H240.466L229.478 494.103V489.978C229.478 489.978 211.456 471.513 197.103 457.172C196.695 456.761 196.286 456.352 195.889 455.956L181.312 444.601H175.825C175.825 444.601 175.231 444.283 174.267 443.807L183.08 428.103L204.108 426.202L205.256 426.994L207.394 428.476L219.623 436.987C250.414 456.259 273.356 461.811 280.928 467.957" fill="#CFD1D2"/>
<path fill-rule="evenodd" clip-rule="evenodd" d="M164.359 395.14C164.359 395.14 166.298 410.707 164.359 412.027C162.42 413.347 172.115 408.779 178.901 409.565C178.901 409.565 168.954 413.19 171.505 416.265C174.054 419.338 174.377 425.33 178.901 421.667C183.426 418.006 191.505 414.956 197.968 417.313C197.968 417.313 187.303 393.852 183.103 391.948C178.901 390.044 168.882 389.585 164.359 395.14" fill="#FF5858"/>
<path fill-rule="evenodd" clip-rule="evenodd" d="M692.334 582.211C686.784 584.792 678.484 588.183 673.933 587.786C666.7 587.143 653.875 598.382 652.559 597.097C651.245 595.812 642.695 587.464 655.849 585.858C655.849 585.858 635.133 585.858 631.187 581.363C627.24 576.868 624.612 574.299 624.612 574.299C624.612 574.299 628.268 571.255 632.858 570.111C635.423 572.77 640.54 577.56 644.998 578.472C651.245 579.757 658.48 583.289 658.48 583.289C658.48 583.289 680.443 581.993 692.334 582.211" fill="#FF5858"/>
<path fill-rule="evenodd" clip-rule="evenodd" d="M548.427 509.999C548.427 509.999 555.604 519.923 557.236 518.6C558.868 517.276 570.678 518.6 570.678 518.6L563.761 521.577L611.069 559.953C611.069 559.953 585.295 524.224 579.748 520.254L561.803 502.389C561.803 502.389 556.802 508.711 548.427 509.999" fill="white"/>
<path fill-rule="evenodd" clip-rule="evenodd" d="M234.534 480.174L241.825 483.766C241.825 483.766 254.42 468.361 265.689 465.999L250.113 457.836H242.158L245.803 456.166C245.803 456.166 214.065 438.835 209.013 432.975C209.013 432.975 205.699 435.258 203.047 441.527L229.563 469.523C229.563 469.523 231.22 467.372 234.37 465.999C234.37 465.999 231.628 478.742 234.534 480.174" fill="white"/>
<path fill-rule="evenodd" clip-rule="evenodd" d="M276.323 478.715L291.085 492.231C291.085 492.231 272.448 492.21 265.826 490.245C259.205 488.279 272.386 478.075 276.323 478.715" fill="#F4C7A2"/>
<path fill-rule="evenodd" clip-rule="evenodd" d="M328.332 500.696C328.332 500.696 306.51 498.457 301.952 497.486C297.392 496.515 288.273 484.114 288.273 484.114L298.043 488.424L284.313 470.222C284.912 470.753 285.499 471.31 286.073 471.866C293.027 478.611 298.383 486.197 301.625 486.909C302.487 487.104 303.932 486.431 305.692 485.252L328.332 500.696Z" fill="#B57F57"/>
<path fill-rule="evenodd" clip-rule="evenodd" d="M346.954 515.766V515.78C346.372 516.238 345.843 516.641 345.363 516.966C345.144 517.114 344.937 517.249 344.743 517.357C342.3 518.801 339.908 520.204 337.62 521.578C330.64 525.748 324.616 529.592 321.046 533.234C319.352 534.948 316.677 536.568 313.677 537.943C319.856 533.68 325.894 521.578 325.894 521.578C320.723 524.223 306.321 521.578 306.321 521.578L328.157 500.696L346.954 515.766Z" fill="#B57F57"/>
<path fill-rule="evenodd" clip-rule="evenodd" d="M550.12 497.31L523.296 493.339L467.161 471.915L471.646 460.212L502.534 446.519V459.21C502.534 459.21 486.965 463.232 485.589 467.255C484.211 471.276 509.735 471.276 509.735 471.276L507.519 465.705C507.519 465.705 526.774 478.775 531.232 469.493L534.013 472.397L547.863 486.831C544.309 484.644 539.954 482.121 536.348 480.4L550.12 497.31Z" fill="#B57F57"/>
<path fill-rule="evenodd" clip-rule="evenodd" d="M399.615 230.503C403.213 231.712 408.637 240.559 412.985 234.455C412.985 234.455 410.34 237.467 408.576 234.455C406.155 230.324 406.17 217.701 397.748 209.494C397.953 210.19 402.109 224.645 399.615 230.503" fill="#000523"/>
<path fill-rule="evenodd" clip-rule="evenodd" d="M399.44 465.142C397.2 467.713 396.141 469.346 396.054 470.221C397.218 468.559 398.327 466.866 399.44 465.142" fill="#000523"/>
<path fill-rule="evenodd" clip-rule="evenodd" d="M397.748 466.189C399.872 466.335 402.063 466.559 404.278 466.835C419.217 456.928 447.425 433.884 448.539 432.975C447.332 433.37 413.826 444.819 397.748 466.189" fill="#000523"/>
<path fill-rule="evenodd" clip-rule="evenodd" d="M455.309 444.826C455.309 444.826 422.339 456.001 409.597 466.642C413.205 467.204 416.786 467.846 420.193 468.528C434.733 461.878 454.704 449.778 455.309 444.826" fill="#000523"/>
<path fill-rule="evenodd" clip-rule="evenodd" d="M337.799 378.798C333.602 378.85 331.253 379.592 330.026 380.62C331.479 382.895 335.319 386.393 343.381 391.894C339.223 396.355 335.146 401.439 333.84 405.314C332.746 408.565 332.454 410.84 332.533 412.4C364.703 415.262 434.995 393.389 434.995 393.389C434.995 393.389 351.984 378.656 337.799 378.798" fill="#000523"/>
<path fill-rule="evenodd" clip-rule="evenodd" d="M326.873 444.094C326.622 445.407 326.466 446.668 326.386 447.861C326.016 453.685 324.105 458.926 321.561 463.449C352.612 457.187 424.168 402.624 426.529 400.807C359.006 440.393 335.088 444.878 326.873 444.094" fill="#000523"/>
<path fill-rule="evenodd" clip-rule="evenodd" d="M304.631 480.38L308.141 483.02C307.191 483.78 306.267 484.464 305.423 485.027C309.251 499.193 325.09 513.766 338.026 521.013C340.361 519.674 342.802 518.309 345.298 516.904C346.369 516.313 347.74 515.263 349.351 513.884L355.422 518.44C349.245 496.791 305.99 480.866 304.631 480.38" fill="#000523"/>
<path fill-rule="evenodd" clip-rule="evenodd" d="M415.632 336.259C413.475 332.321 348.382 288.997 354.299 265.364C354.299 265.364 335.245 285.044 377.944 306.707C376.655 306.313 327.658 291.044 330.116 296.873C332.509 302.571 378.929 325.363 382.231 326.991C379.535 325.769 347.751 311.459 348.382 314.598C349.027 317.839 396.341 347.235 397.656 348.062C396.615 347.786 356.298 336.98 358.245 341.51C359.77 345.055 396.656 372.363 429.321 381.146C425.086 377.299 420.405 373.137 419.168 369.474C418.445 367.347 418.223 365.234 418.327 363.199C425.479 369.397 435.436 376.655 446.268 380.487L446.258 380.49L446.297 380.502C446.483 380.568 446.67 380.622 446.856 380.685C447.463 380.893 448.071 381.096 448.683 381.282C448.986 381.373 449.292 381.45 449.596 381.535C450.149 381.691 450.701 381.849 451.256 381.984C451.669 382.084 452.084 382.162 452.498 382.252C452.954 382.348 453.407 382.456 453.863 382.54C454.74 382.698 455.62 382.83 456.501 382.93C456.501 382.93 466.798 391.583 483.709 396.664C484.958 397.28 485.931 397.767 486.588 398.093C487.26 398.423 487.614 398.594 487.614 398.594C501.264 402.178 506.512 401.245 514.072 396.978C517.439 395.075 518.976 392.541 519.647 390.296C516.269 388.996 505.012 386.121 497.923 384.348C497.254 383.929 496.584 383.508 495.925 383.088C493.596 385.031 490.744 387.079 488.1 388.09C482.183 390.361 471.336 382.93 471.336 382.93C471.336 382.93 483.169 377.286 476.988 375.645C472.206 374.375 456.426 377.97 449.531 379.662C441.955 375.842 430.282 369.117 425.468 361.859C425.468 361.859 436.277 365.799 440.985 364.485C445.679 363.172 400.481 336.352 391.171 329.72C392.5 330.234 417.734 340.093 415.632 336.259" fill="#000523"/>
<path fill-rule="evenodd" clip-rule="evenodd" d="M698.824 582.207C694.207 589.428 674.413 590.742 669.133 596.652C663.857 602.56 643.404 603.874 641.423 602.56C639.444 601.248 636.805 585.488 630.868 584.175C624.929 582.861 618.332 572.356 618.332 572.356C611.88 577.504 610.414 569.731 602.497 559.882C594.58 550.033 553.673 521.744 553.673 521.744C548.395 524.974 539.819 513.261 537.179 508.664C537.179 508.664 551.364 507.679 560.272 497.174L554.385 494.153L551.813 491.475C548.914 493.055 544.988 494.996 540.853 496.489C536.789 492.688 531.552 487.329 528.931 482.763C522.341 479.502 516.04 475.7 509.746 471.889C512.747 476.237 512.768 481.099 512.768 481.099C500.57 483.537 481.89 475.122 472.979 470.568C488.724 458.497 504.837 444.973 504.837 444.973C504.837 444.973 478.195 440.824 450.232 476.661C450.907 476.791 451.527 476.766 452.068 476.49C453.728 475.664 458.555 476.694 461.929 477.587L461.926 477.593C462.361 477.699 462.77 477.817 463.152 477.922C464.511 478.289 465.422 478.59 465.435 478.59L508.136 493.235C508.136 493.235 516.726 502.754 520.685 511.29C524.643 519.828 547.075 543.137 553.343 546.092C559.611 549.046 572.122 554.366 589.434 570.912L609.385 589.968C606.455 600.591 629.507 620.356 629.507 620.356C654.581 623.469 651.36 612.514 670.453 606.501C680.798 603.243 701.795 584.175 698.824 582.207" fill="#000523"/>
<path fill-rule="evenodd" clip-rule="evenodd" d="M304.758 213.868C288.363 215.2 246.272 204.542 243.644 205.874C241.016 207.207 272.545 221.808 272.545 221.808C264.02 221.129 252.959 218.332 241.988 214.894C253.89 224.566 265.713 231.987 274.529 232.639C277.971 235.798 282.07 238.581 286.72 240.14C293.71 247.081 301.367 253.876 308.541 258.592C316.949 244.697 311.299 223.194 330.034 215.866C348.57 208.618 361.905 208.579 362.194 208.579C361.682 208.228 361.177 207.892 360.678 207.57C360.444 207.418 360.218 207.281 359.986 207.135C359.708 206.961 359.428 206.783 359.155 206.619C359.112 206.594 359.069 206.566 359.028 206.541C359.03 206.543 359.033 206.546 359.034 206.549C356.298 204.916 353.85 203.822 351.907 203.569C340.373 202.038 340.373 203.569 340.373 203.569C340.373 203.569 322.178 197.122 310.709 202.89C301.264 201.052 291.293 198.76 281.596 195.949C282.253 199.825 283.056 202.851 283.056 203.876C283.056 207.207 304.758 213.868 304.758 213.868" fill="#000523"/>
<path fill-rule="evenodd" clip-rule="evenodd" d="M179.888 158.974C181.19 160.102 187.095 162.607 192.616 164.796C192.709 165.754 192.826 166.37 192.826 166.37C192.826 166.37 195.588 169.832 200.991 175.445C207.566 182.552 217.467 192.873 228.274 202.722C227.734 202.053 220.148 192.807 220.148 188.585C220.148 184.218 257.224 187.103 257.224 187.103C223.855 160.745 225.395 167.197 223.132 165.583C223.132 165.583 203.28 167.604 203.937 165.203C204.397 163.512 210.826 160.247 216.36 159.643C212.022 157.137 207.92 156.903 207.908 156.903L202.622 151.342H202.608C202.306 151.394 192.3 153.243 191.656 157.112C190.998 161.045 182.61 150.765 182.61 150.765C179.837 150.988 174.432 151.303 172 150.608C166.622 149.087 167.555 152.745 167.555 152.745C167.555 152.745 173.631 153.506 179.888 158.974" fill="#000523"/>
<path fill-rule="evenodd" clip-rule="evenodd" d="M386.194 229.704C385.434 229.143 361.032 211.212 358.447 210.572C355.824 209.92 353.632 212.53 357.568 215.362C361.15 217.932 381.864 229.835 385.616 232C377.366 227.577 367.382 230.421 366.32 232.328C365.215 234.285 373.967 234.715 387.087 237.978C397.2 240.496 406.647 255.935 411.291 261.978C409.624 258.545 408.064 255.466 406.633 252.907C403.708 247.649 399.485 242.389 394.786 237.43C394.734 237.364 394.67 237.299 394.59 237.222C393.777 236.36 392.951 235.511 392.111 234.676L392.098 234.663C392.36 233.254 392.675 231.817 393.042 230.383C393.515 229.835 394.053 229.482 394.643 229.299C396.191 221.509 394.839 208.602 393.817 208.536C392.464 208.457 390.367 226.532 390.367 226.532C390.367 226.532 389.487 221.455 384.726 212.973C379.949 204.491 370.53 199.335 370.53 199.335L361.819 208.222C372.668 212.113 385.775 229.156 386.194 229.704" fill="#000523"/>
<path fill-rule="evenodd" clip-rule="evenodd" d="M410.055 209.365C410.055 209.365 411.656 211.345 412.177 210.905C412.696 210.466 412.115 203.643 414.276 202.542C416.437 201.441 419.977 196.367 421.297 196.005C422.618 195.642 423.701 196.255 425.646 196.005C426.811 195.854 430.136 192.137 430.365 188.215C430.561 190.02 430.585 192.327 430.237 195.278C430.237 195.278 427.572 204.12 425.646 202.872C423.095 201.221 420.343 203.037 420.011 205.018C419.683 206.998 422.488 213.345 417.378 221.638C415.423 224.795 414.58 228.333 414.276 231.503C415.669 229.502 419.293 229.229 419.626 225.983C419.626 225.983 421.522 224.807 421.192 224.146C421.192 224.146 421.654 222.489 423.314 221.616C423.314 221.616 425.239 223.066 426.941 222.664C428.587 222.274 427.825 218.444 428.308 214.975C428.576 213.053 428.34 210.729 428.081 209.056C427.883 207.786 428.203 206.486 429.011 205.488C431.419 202.518 432.438 197.71 432.72 193.41C432.746 193.186 433.533 192.036 433.547 191.812C434.376 190.741 435.295 190.854 436.021 189.705C434.805 188.279 438.094 183.432 439.651 182.402C438.925 181.953 439.011 182.027 438.285 181.576C438.814 180.811 439.124 179.207 439.651 178.44C439.546 178.44 440.155 176.934 440.064 176.909L439.651 175.469C440.999 173.145 438.648 173.924 438.199 171.27C437.023 171.467 439.198 169.268 438.285 170.021C439.276 168.569 436.073 169.276 435.215 167.744C435.783 166.7 436.048 165.498 435.995 164.31C435.466 164.244 434.938 164.191 434.424 164.138C434.437 163.002 434.464 161.88 434.491 160.757C433.658 161.02 432.773 161.127 431.902 161.034C431.44 159.555 430.964 158.076 430.502 156.61C430.106 157.073 429.724 157.549 429.328 158.01C428.826 157.126 428.337 156.228 427.861 155.317L427.108 159.779L428.456 158.803C428.456 158.803 429.486 162.105 428.456 166.382C428.456 166.382 430.898 166.066 431.401 165.061C431.401 165.061 430.898 172.326 429.749 173.99L432.219 175.469C432.219 175.469 429.644 182.072 428.456 182.573C428.456 182.573 428.951 183.058 429.456 184.298C429.087 185.683 428.441 187.613 427.439 189.116L425.02 187.795L423.699 191.978L421.058 187.244V193.41H418.637V197.038L416.402 198.579C416.402 198.579 417.977 188.895 413.136 188.895C408.295 188.895 406.975 201.001 408.515 205.184L410.055 209.365Z" fill="#000523"/>
<path fill-rule="evenodd" clip-rule="evenodd" d="M283.271 521.319C283.271 521.319 278.654 507.229 274.694 505.586C270.734 503.941 255.558 500.954 255.558 500.954L265.456 511.505C265.456 511.505 255.122 506.902 249.289 503.611C249.289 503.611 263.291 470.274 285.33 471.656C283.905 470.262 282.413 468.906 280.857 467.656C279.089 466.237 276.501 464.842 273.162 463.302C263.08 467.973 246.491 477.946 244.67 493.679L232.463 488.812C232.463 488.812 230.483 478.22 232.449 469.551C232.174 469.973 227.818 476.788 227.5 480.602L197.057 447.497C198.543 437.259 204.637 431.986 207.296 428.361L202.531 425.073C204.631 424.178 205.619 423.059 204.313 421.652C188.702 414.68 182.315 425.007 177.366 423.362C172.417 421.718 164.168 430.597 161.528 422.704C158.89 414.812 139.095 447.043 137.444 439.478C136.363 434.518 143.092 419.205 147.857 409.272C144.611 412.39 141.522 415.337 139.649 417.665C134.369 424.244 117.649 458.884 125.567 456.686C133.485 454.503 156.963 438.846 162.52 439.583C168.075 440.333 175.716 444.411 175.716 444.411H181.207L195.788 455.712C196.186 456.106 196.593 456.515 197.003 456.923C211.361 471.197 229.388 489.575 229.388 489.575V493.679L240.381 503.611H246.544C246.544 503.611 261.496 513.256 269.85 516.334C278.217 519.4 291.849 541.329 297.563 541.329C300.098 541.329 304.017 540.552 308.015 539.277C300.176 537.119 287.311 532.015 283.271 521.319" fill="#000523"/>
<path fill-rule="evenodd" clip-rule="evenodd" d="M284.313 504.082L311.402 505.042C311.402 505.042 300.366 515.609 293.678 515.927C286.989 516.249 284.313 504.082 284.313 504.082" fill="#F4C7A2"/>
<path fill-rule="evenodd" clip-rule="evenodd" d="M575.904 634.089C567.739 648.02 545.407 650.378 526.023 639.355C506.64 628.331 497.545 608.101 505.713 594.171C513.878 580.24 536.21 577.881 555.594 588.904C574.977 599.927 584.07 620.158 575.904 634.089" fill="#010723"/>
<path fill-rule="evenodd" clip-rule="evenodd" d="M536.576 587.313L537.642 596.148C537.642 596.148 548.101 599.095 554.075 605.665H561.972C561.972 605.665 560.364 595.441 554.716 590.136C554.716 590.136 547.674 585.954 536.576 587.313" fill="#CFD1D2"/>
<path fill-rule="evenodd" clip-rule="evenodd" d="M555.725 607.357H563.715C563.715 607.357 568.951 615.462 570.437 621.647C570.437 621.647 561.495 623.779 553.507 621.647C553.507 621.647 556.835 609.703 555.725 607.357" fill="#CFD1D2"/>
<path fill-rule="evenodd" clip-rule="evenodd" d="M560.278 593.813C560.278 593.813 563.813 600.393 564.666 605.978C564.666 605.978 572.29 615.793 573.214 619.209C573.214 619.209 576.58 614.009 575.171 610.246C573.763 606.481 564.075 594.586 560.278 593.813" fill="#CFD1D2"/>
<path fill-rule="evenodd" clip-rule="evenodd" d="M535.87 585.383C535.87 585.383 544.506 585.722 551.814 587.041C551.814 587.041 537.903 577.731 517.953 584.32L535.87 585.383Z" fill="#CFD1D2"/>
<path fill-rule="evenodd" clip-rule="evenodd" d="M534.882 588.228V597.223L521.381 602.279C521.381 602.279 515.587 597.639 514.694 595.252C513.802 592.868 517.834 588.228 517.834 588.228C517.834 588.228 523.186 585.558 534.882 588.228" fill="#CFD1D2"/>
<path fill-rule="evenodd" clip-rule="evenodd" d="M536.285 598.933C536.285 598.933 551.5 603.65 553.505 608.793L549.59 622.595C549.59 622.595 531.437 621.28 521.337 605.725C521.337 605.725 531.365 598.277 536.285 598.933" fill="#CFD1D2"/>
<path fill-rule="evenodd" clip-rule="evenodd" d="M536.576 600.585C536.576 600.585 548.697 604.818 551.814 608.416L548.349 619.209C548.349 619.209 546.272 611.749 542.118 609.897C537.962 608.045 536.576 600.585 536.576 600.585" fill="white"/>
<path fill-rule="evenodd" clip-rule="evenodd" d="M542.469 589.363C540.92 590.509 541.502 595.133 544.886 596.568C548.27 598.002 553.589 600.464 555.684 603.971H561.971C561.971 603.971 561.971 595.961 556.061 590.822C556.061 590.822 545.192 587.348 542.469 589.363" fill="white"/>
<path fill-rule="evenodd" clip-rule="evenodd" d="M561.973 593.813C561.973 593.813 567.053 601.24 567.208 605.909L573.587 615.823C573.587 615.823 576.489 602.838 561.973 593.813" fill="white"/>
<path fill-rule="evenodd" clip-rule="evenodd" d="M551.813 587.041C551.813 587.041 527.409 584.601 524.95 583.026C522.489 581.452 540.768 580.811 551.813 587.041" fill="white"/>
<path fill-rule="evenodd" clip-rule="evenodd" d="M533.19 588.2V595.506C533.19 595.506 525.516 593.317 524.768 589.175C524.023 585.031 533.19 588.2 533.19 588.2" fill="white"/>
<path fill-rule="evenodd" clip-rule="evenodd" d="M556.893 609.051V617.465C556.893 617.465 564.012 617.982 565.113 615.717C566.212 613.452 563.252 609.051 563.252 609.051H556.893Z" fill="white"/>
<path fill-rule="evenodd" clip-rule="evenodd" d="M129.164 470.222C129.164 470.222 130.053 472.198 131.825 475.814C133.589 479.438 136.203 484.744 139.93 491.26C143.654 497.776 148.366 505.567 154.31 514.124C160.273 522.659 167.384 532.028 175.932 541.519C180.174 546.289 184.778 551.091 189.777 555.785C194.805 560.441 200.108 565.146 205.963 569.371C208.86 571.519 211.888 573.556 215.056 575.366C218.228 577.146 221.52 578.822 224.938 579.811C228.253 580.769 232.058 581.07 234.779 579.725C237.538 578.445 239.088 574.99 240.071 571.238C241.111 567.473 241.681 563.337 243.343 559.261C244.174 557.241 245.403 555.207 247.227 553.698C249.029 552.155 251.345 551.367 253.556 551.117C255.802 550.889 257.941 551.03 260.133 551.496C262.266 551.981 264.311 552.682 266.283 553.523C270.23 555.201 273.909 557.367 277.549 559.582C281.186 561.808 284.729 564.193 288.24 566.632C291.768 569.052 295.266 571.523 298.756 574.023C305.762 578.976 312.772 583.965 319.832 588.855C333.979 598.588 348.445 607.807 363.279 615.515C370.715 619.315 378.249 622.746 385.915 625.388C393.621 628.052 401.389 630.344 408.93 631.149C412.676 631.54 416.364 631.468 419.523 630.603C422.713 629.733 425.104 627.981 427.464 625.238C428.672 623.884 429.886 622.293 431.541 620.705C433.153 619.119 435.41 617.624 437.854 616.951C440.3 616.275 442.669 616.278 444.824 616.577C446.148 616.778 447.069 617.033 448.092 617.321C449.083 617.611 450.025 617.935 450.949 618.27C454.614 619.635 457.971 621.201 461.255 622.761C464.531 624.33 467.706 625.904 470.808 627.485C477.008 630.63 482.974 633.633 488.769 636.342C500.319 641.825 511.201 646.115 521.14 648.754C526.111 650.046 530.842 650.918 535.248 651.287C539.653 651.681 543.716 651.547 547.35 651.13C554.639 650.228 559.996 647.686 563.346 645.598C565.038 644.562 566.267 643.643 567.071 642.999C567.878 642.35 568.293 642.013 568.293 642.013L568.744 642.495C568.744 642.495 568.356 642.876 567.604 643.614C566.849 644.349 565.687 645.405 564.049 646.644C560.791 649.089 555.391 652.177 547.778 653.742C540.191 655.338 530.638 655.057 520.18 652.936C509.689 650.86 498.315 646.85 486.362 641.737C480.391 639.16 474.266 636.3 467.972 633.34C461.691 630.43 455.224 627.15 448.635 624.771C447.819 624.492 447.003 624.225 446.205 624.007C445.438 623.793 444.546 623.598 444.02 623.525C442.476 623.321 440.995 623.399 439.789 623.763C438.572 624.122 437.523 624.753 436.387 625.839C435.259 626.904 434.092 628.376 432.723 629.926C431.354 631.477 429.724 633.111 427.773 634.441C425.83 635.783 423.612 636.772 421.373 637.386C416.863 638.596 412.409 638.433 408.176 637.943C399.689 636.852 391.684 634.262 383.79 631.373C375.828 628.432 368.083 624.781 360.563 620.66C345.495 612.428 331.443 602.219 317.751 591.744C303.999 581.36 290.778 570.249 276.503 561.289C272.937 559.069 269.264 557.045 265.476 555.467C263.579 554.694 261.65 554.027 259.699 553.658C257.804 553.312 255.739 553.249 253.868 553.516C251.987 553.799 250.245 554.487 248.936 555.693C247.621 556.894 246.726 558.54 246.097 560.338C244.837 563.965 244.476 568.014 243.61 572.095C243.17 574.141 242.62 576.238 241.607 578.288C240.627 580.327 238.98 582.315 236.833 583.522C234.697 584.748 232.332 585.18 230.141 585.27C227.939 585.34 225.774 585.105 223.718 584.613C215.537 582.6 208.818 578.38 202.579 574.121C190.245 565.306 180.314 555.062 171.74 545.223C163.272 535.267 156.286 525.525 150.674 516.543C147.842 512.068 145.364 507.776 143.186 503.748C140.995 499.727 139.094 495.975 137.498 492.532C134.279 485.655 132.049 480.131 130.62 476.335C129.224 472.515 128.554 470.471 128.554 470.471L129.164 470.222Z" fill="#000523"/>
<mask id="mask1_176_754" style="mask-type:luminance" maskUnits="userSpaceOnUse" x="493" y="557" width="232" height="103">
<path fill-rule="evenodd" clip-rule="evenodd" d="M493.319 557.51H724.864V659.605H493.319V557.51Z" fill="white"/>
</mask>
<g mask="url(#mask1_176_754)">
<path fill-rule="evenodd" clip-rule="evenodd" d="M501.017 608.239C501.017 608.239 500.22 607.01 498.982 604.559C497.77 602.102 496.016 598.438 494.702 593.447C494.053 590.955 493.512 588.13 493.36 585.001C493.207 581.881 493.452 578.418 494.647 574.929C495.765 571.42 498.01 568.015 501.086 565.225C504.173 562.458 508.119 560.349 512.392 558.986C516.78 557.61 521.572 557.205 526.428 557.733C531.28 558.236 536.18 559.538 540.944 561.448C550.48 565.303 559.603 571.261 568.077 578.418C576.542 585.602 584.509 593.913 591.626 603.127C595.221 607.698 598.471 612.659 601.661 617.477C604.884 622.309 608.175 627.117 611.592 631.806C615.006 636.492 618.548 641.078 622.435 645.241C626.305 649.342 630.617 653.23 635.518 655.005C637.949 655.915 640.475 656.058 642.857 655.451C645.245 654.838 647.458 653.424 649.418 651.689C653.446 648.064 656.629 643.738 659.11 638.996C660.382 636.635 661.465 634.178 662.809 631.707C663.489 630.478 664.246 629.236 665.235 628.084C666.22 626.94 667.494 625.913 668.933 625.273C671.858 623.971 674.861 624.148 677.515 624.526C678.864 624.719 680.163 625.009 681.435 625.333C682.078 625.481 682.698 625.673 683.321 625.851L684.253 626.121L685.076 626.312C686.349 626.676 687.417 626.706 688.512 626.824C689.667 626.793 690.828 626.848 691.979 626.653C694.287 626.427 696.533 625.782 698.691 625.046C702.996 623.48 706.919 621.247 710.358 618.693C713.783 616.111 716.715 613.174 719.026 610.055C721.32 606.945 723.026 603.556 723.356 600.178C723.75 596.823 722.685 593.609 720.653 591.428C718.688 589.17 716.132 587.875 713.882 586.782C712.695 586.346 711.605 585.828 710.515 585.521C709.429 585.202 708.407 584.902 707.46 584.623C705.519 584.227 703.876 583.824 702.52 583.628C699.803 583.247 698.353 583.044 698.353 583.044C698.353 583.044 699.812 583.173 702.55 583.415C703.918 583.542 705.585 583.863 707.563 584.163C708.536 584.398 709.582 584.65 710.698 584.917C711.817 585.188 712.949 585.669 714.179 586.076C716.533 587.112 719.233 588.338 721.461 590.693C723.75 592.955 725.132 596.564 724.822 600.309C724.588 604.078 722.877 607.769 720.582 611.149C718.257 614.543 715.225 617.658 711.715 620.451C708.177 623.207 704.13 625.646 699.574 627.425C697.282 628.266 694.881 629.018 692.324 629.335C691.06 629.572 689.745 629.559 688.425 629.613C687.048 629.52 685.613 629.431 684.451 629.12L683.428 628.901L682.534 628.664C681.935 628.508 681.337 628.337 680.734 628.214C679.53 627.937 678.314 627.697 677.103 627.553C674.694 627.247 672.223 627.262 670.301 628.205C668.371 629.103 666.994 631.041 665.781 633.314C664.575 635.588 663.491 638.122 662.193 640.605C659.664 645.603 656.208 650.448 651.875 654.422C649.65 656.433 646.984 658.241 643.829 659.098C640.675 659.941 637.225 659.704 634.252 658.597C631.25 657.536 628.599 655.876 626.212 654.012C623.823 652.142 621.648 650.064 619.605 647.896C615.52 643.552 611.88 638.878 608.397 634.124C604.944 629.346 601.651 624.487 598.427 619.616C595.206 614.711 592.112 609.944 588.603 605.443C581.659 596.429 574.019 588.14 565.821 581.051C557.608 574.01 548.912 567.997 539.849 564.095C535.325 562.158 530.701 560.822 526.145 560.242C521.605 559.635 517.085 559.932 513.065 561.094C508.955 562.284 505.301 564.198 502.325 566.653C499.389 569.126 497.196 572.173 496.025 575.42C494.78 578.644 494.41 581.944 494.445 584.969C494.478 588.004 494.9 590.791 495.445 593.267C496.577 598.219 498.075 601.967 499.173 604.467C500.283 606.969 501.017 608.239 501.017 608.239" fill="#000523"/>
</g>
<path fill-rule="evenodd" clip-rule="evenodd" d="M512.825 391.514C512.825 391.514 512.835 391.68 512.853 392.006C512.858 392.2 512.865 392.441 512.874 392.729C512.868 392.984 512.859 393.278 512.852 393.614C512.762 394.944 512.649 396.911 511.804 399.399C510.98 401.845 509.361 404.94 506.298 407.392C503.267 409.868 499.05 411.304 494.574 411.72C493.463 411.749 492.325 411.779 491.157 411.81L490.276 411.828L489.409 411.75C488.828 411.697 488.24 411.643 487.645 411.589C485.233 411.462 482.853 410.908 480.34 410.428C477.942 409.967 475.457 409.333 472.914 408.827C471.66 408.591 470.384 408.352 469.087 408.109C467.787 407.888 466.454 407.723 465.104 407.521C463.753 407.327 462.403 407.264 461.019 407.121C460.333 407.075 459.659 407.086 458.971 407.063C458.282 407.044 457.587 407.021 456.931 407.092C455.569 407.14 454.266 407.332 453.087 407.641C451.938 407.981 450.976 408.468 450.416 409.068C449.895 409.679 449.568 410.529 449.478 411.749C449.475 412.063 449.437 412.36 449.451 412.693L449.521 413.726C449.539 414.068 449.619 414.449 449.665 414.811L449.744 415.364C449.742 415.337 449.829 416.072 449.798 415.835C449.799 415.964 449.807 415.757 449.802 416.196C449.793 416.511 449.742 416.832 449.661 417.131C449.592 417.347 449.511 417.541 449.416 417.739C449.039 418.477 448.544 418.928 448.172 419.204C447.97 419.354 447.78 419.476 447.615 419.565C447.433 419.672 447.268 419.755 447.118 419.82C446.489 420.105 445.945 420.267 445.436 420.393C444.411 420.649 443.481 420.771 442.553 420.872C440.711 421.065 438.925 421.113 437.129 421.123C429.975 421.108 422.717 420.441 415.22 419.568C407.729 418.675 400.035 417.507 392.163 416.101C376.428 413.272 359.968 409.544 343.237 404.557C334.877 402.053 326.449 399.229 318.073 395.916C309.704 392.598 301.362 388.817 293.362 384.157C289.365 381.826 285.463 379.255 281.767 376.342C279.917 374.867 278.15 373.357 276.414 371.643C274.799 369.993 273.159 368.42 271.58 366.607C268.409 363.087 265.459 359.377 263.052 355.202C260.653 351.051 258.866 346.393 258.315 341.475C258.114 339.021 258.119 336.526 258.55 334.103C258.973 331.691 259.625 329.325 260.524 327.094C262.299 322.614 264.72 318.553 267.094 314.591C269.462 310.623 271.843 306.728 273.619 302.618C275.425 298.519 276.6 294.248 276.694 289.81C276.722 285.567 275.745 281.083 274.439 276.88C273.114 272.64 271.37 268.535 269.361 264.596C265.363 256.704 260.44 249.381 254.939 242.748C249.469 236.081 243.387 230.11 236.919 224.917C230.465 219.703 223.586 215.3 216.459 211.907C209.342 208.493 202.004 206.05 194.709 204.669C191.065 203.97 187.43 203.554 183.852 203.369C182.066 203.186 180.288 203.324 178.53 203.284C176.757 203.292 175.002 203.298 173.265 203.304C169.795 203.301 166.337 203.016 163.042 202.498C161.384 202.273 159.784 201.809 158.182 201.482C157.403 201.235 156.625 200.988 155.853 200.744C155.083 200.5 154.313 200.266 153.589 199.918C152.854 199.598 152.126 199.282 151.402 198.968C150.695 198.616 150.025 198.2 149.341 197.822L148.33 197.24L147.393 196.554C146.785 196.078 146.119 195.688 145.577 195.151C143.236 193.194 141.457 190.724 140.277 188.114C139.104 185.492 138.606 182.68 138.732 179.999C138.899 177.315 139.663 174.797 140.792 172.601C143.045 168.146 146.898 165.254 150.615 163.675C154.414 162.162 158.146 161.895 161.272 162.2C164.407 162.536 167.016 163.229 169.044 163.992C170.055 164.392 170.959 164.716 171.715 165.047C172.456 165.417 173.079 165.729 173.58 165.981C174.581 166.483 175.099 166.743 175.099 166.743C175.099 166.743 174.578 166.489 173.571 165.999C173.067 165.752 172.442 165.447 171.699 165.086C170.938 164.763 170.032 164.45 169.02 164.061C166.988 163.323 164.377 162.662 161.258 162.363C158.148 162.094 154.453 162.403 150.723 163.937C147.075 165.536 143.329 168.422 141.176 172.798C140.098 174.956 139.384 177.417 139.248 180.023C139.154 182.628 139.67 185.342 140.832 187.864C142.002 190.371 143.74 192.74 146.033 194.613C146.563 195.129 147.221 195.499 147.814 195.955L148.73 196.613L149.722 197.168C150.393 197.528 151.048 197.927 151.74 198.262C152.453 198.56 153.168 198.861 153.888 199.164C154.597 199.499 155.355 199.717 156.113 199.948C156.871 200.18 157.634 200.412 158.401 200.647C159.979 200.949 161.55 201.387 163.185 201.591C166.455 202.064 169.791 202.306 173.256 202.273C174.988 202.246 176.739 202.221 178.505 202.193C180.287 202.211 182.09 202.056 183.903 202.221C187.535 202.367 191.229 202.748 194.937 203.417C202.36 204.736 209.844 207.133 217.109 210.521C224.389 213.889 231.423 218.282 238.035 223.5C244.661 228.7 250.902 234.694 256.536 241.405C262.199 248.085 267.292 255.474 271.475 263.508C273.577 267.519 275.417 271.715 276.842 276.104C278.246 280.517 279.345 285.023 279.366 289.94C279.324 294.661 278.078 299.425 276.216 303.742C274.384 308.106 271.976 312.133 269.658 316.119C267.331 320.099 265.044 324.062 263.449 328.234C261.845 332.393 261.091 336.789 261.588 341.118C262.126 345.442 263.753 349.619 266.025 353.456C268.292 357.297 271.173 360.844 274.212 364.142C275.68 365.802 277.387 367.409 279.012 369.032C280.57 370.537 282.318 372.007 284.073 373.372C287.622 376.104 291.407 378.542 295.307 380.759C303.115 385.193 311.33 388.811 319.593 391.982C327.866 395.145 336.211 397.841 344.498 400.222C361.084 404.964 377.429 408.477 393.022 411.101C400.82 412.404 408.438 413.473 415.816 414.268C423.181 415.046 430.352 415.614 437.083 415.549C438.754 415.522 440.405 415.453 441.938 415.273C442.696 415.184 443.445 415.067 444.046 414.906C444.352 414.832 444.609 414.735 444.739 414.672C444.879 414.657 444.8 414.472 444.343 415.204C444.291 415.307 444.253 415.406 444.223 415.525C444.158 415.721 444.125 415.939 444.131 416.152C444.157 416.489 444.134 416.178 444.136 416.203C444.098 415.863 444.178 416.496 444.158 416.366L444.05 415.688C443.987 415.228 443.894 414.8 443.858 414.319L443.746 412.895C443.723 412.413 443.756 411.892 443.767 411.394C443.864 409.381 444.525 407.02 446.101 405.216C446.508 404.815 446.928 404.422 447.358 404.045C447.784 403.667 448.254 403.463 448.709 403.178C449.634 402.574 450.533 402.372 451.443 402.029C453.233 401.527 454.95 401.286 456.584 401.203C457.42 401.114 458.211 401.126 458.998 401.139C459.785 401.153 460.577 401.138 461.342 401.182C462.852 401.311 464.368 401.376 465.81 401.566C467.251 401.763 468.674 401.926 470.064 402.146C471.449 402.39 472.813 402.628 474.151 402.866C476.779 403.361 479.226 403.957 481.625 404.39C483.908 404.794 486.103 405.29 488.172 405.359C488.692 405.403 489.205 405.446 489.71 405.487L490.465 405.552L491.193 405.522C492.154 405.489 493.091 405.454 494.005 405.422C497.577 405.03 500.408 403.932 502.248 402.392C504.108 400.87 505.076 398.995 505.621 397.354C506.175 395.704 506.237 394.281 506.291 393.385C506.297 393.159 506.3 392.96 506.304 392.789C506.298 392.652 506.294 392.538 506.289 392.446C506.291 392.284 506.261 392.049 506.267 392.078L512.825 391.514Z" fill="#000523"/>
<path fill-rule="evenodd" clip-rule="evenodd" d="M502.054 554.874C502.054 554.874 501.491 554.981 500.435 555.183C499.38 555.389 497.844 555.712 495.904 556.182C493.96 556.624 491.636 557.301 488.998 558.114C486.387 559.007 483.46 560.057 480.426 561.511C477.401 562.976 474.257 564.791 471.231 567.068C468.229 569.376 465.464 572.255 463.2 575.6L462.348 576.861C462.089 577.297 461.868 577.76 461.626 578.21L460.909 579.572C460.811 579.771 460.617 580.095 460.6 580.191L460.297 580.952L459.994 581.717L459.807 582.4C459.689 582.853 459.537 583.283 459.475 583.788C459.27 584.759 459.185 585.755 459.143 586.756C459.067 590.788 460.473 594.899 462.626 598.6C464.745 602.339 467.594 605.733 470.679 608.791C473.81 611.815 477.131 614.598 480.548 617.042C483.97 619.477 487.393 621.706 490.755 623.643C494.127 625.557 497.36 627.318 500.419 628.811C503.47 630.314 506.315 631.61 508.852 632.74C511.404 633.823 513.63 634.786 515.489 635.518C519.211 636.991 521.338 637.832 521.338 637.832C521.338 637.832 520.783 637.693 519.741 637.437C518.701 637.165 517.155 636.831 515.232 636.258C513.296 635.726 510.961 635.019 508.301 634.142C505.651 633.24 502.663 632.193 499.475 630.865C496.268 629.58 492.856 628.021 489.323 626.211C485.788 624.405 482.139 622.317 478.537 619.873C474.941 617.426 471.317 614.705 467.995 611.5C464.692 608.286 461.576 604.687 459.175 600.533C456.825 596.39 455.179 591.601 455.318 586.665C455.38 585.44 455.488 584.218 455.767 583.027C455.864 582.434 456.081 581.819 456.269 581.217L456.562 580.322L456.889 579.568L457.214 578.815C457.384 578.398 457.505 578.266 457.653 577.98L458.494 576.487C458.781 575.994 459.042 575.491 459.347 575.014L460.331 573.643C462.926 569.986 466.151 567.023 469.48 564.715C472.828 562.413 476.273 560.748 479.518 559.452C482.762 558.142 485.859 557.338 488.593 556.672C491.345 556.064 493.761 555.655 495.761 555.417C497.752 555.138 499.34 555.053 500.408 554.972C501.481 554.906 502.054 554.874 502.054 554.874" fill="#000523"/>
<path fill-rule="evenodd" clip-rule="evenodd" d="M403.532 566.725C403.532 566.725 403.342 566.966 402.987 567.42C402.659 567.891 402.191 568.601 401.876 569.618C401.545 570.619 401.414 571.927 401.698 573.366C401.988 574.801 402.674 576.332 403.611 577.879C405.521 580.976 408.551 584.033 411.98 587.039C415.422 590.048 419.353 592.963 423.397 595.709C427.412 598.501 431.542 601.128 435.472 603.5C439.404 605.865 443.083 608.069 446.289 609.867C452.674 613.508 457.003 615.823 457.003 615.823C457.003 615.823 455.873 615.347 453.927 614.44C451.986 613.521 449.2 612.232 445.933 610.53C442.67 608.827 438.857 606.838 434.883 604.501C430.911 602.168 426.723 599.582 422.649 596.814C418.608 593.998 414.675 591.007 411.219 587.91C407.769 584.819 404.849 581.525 402.969 578.265C402.043 576.632 401.422 574.977 401.212 573.447C401.004 571.914 401.227 570.546 401.633 569.529C402.015 568.495 402.571 567.819 402.931 567.374C403.323 566.949 403.532 566.725 403.532 566.725" fill="#000523"/>
<path fill-rule="evenodd" clip-rule="evenodd" d="M549.357 580.269C549.357 580.269 550.119 580.496 551.518 581.013C552.924 581.524 554.961 582.345 557.454 583.618C562.436 586.138 569.326 590.38 576.459 596.932C580.027 600.194 583.652 604.037 586.974 608.532C590.289 613.021 593.395 618.138 595.59 623.919C597.813 629.687 599.272 636.004 599.218 642.659C599.144 645.98 598.615 649.403 597.329 652.628C596.057 655.852 594.019 658.817 591.468 661.16C586.28 665.861 579.648 668.013 573.338 669.107C566.962 670.203 560.644 670.129 554.628 669.735C548.6 669.317 542.85 668.391 537.46 667.299C532.068 666.224 527.04 664.913 522.445 663.58C513.249 660.918 505.794 658.096 500.62 656.041C498.033 655.016 496.025 654.142 494.655 653.557C493.288 652.964 492.558 652.647 492.558 652.647C492.558 652.647 495.577 653.649 500.879 655.296C506.188 656.924 513.789 659.184 523.014 661.369C532.237 663.499 543.119 665.636 554.835 666.239C560.68 666.523 566.743 666.354 572.69 665.323C578.592 664.272 584.517 662.192 588.815 658.221C590.966 656.268 592.65 653.858 593.738 651.166C594.836 648.475 595.327 645.528 595.414 642.566C595.428 641.813 595.435 641.15 595.399 640.356L595.342 639.183L595.239 638.1C595.135 636.603 594.897 635.126 594.665 633.659C594.137 630.731 593.33 627.888 592.35 625.155C590.374 619.689 587.631 614.695 584.593 610.263C581.534 605.841 578.214 601.934 574.898 598.574C568.257 591.848 561.797 587.186 557.076 584.307C554.708 582.877 552.784 581.837 551.44 581.211C550.096 580.568 549.357 580.269 549.357 580.269" fill="#010723"/>
<path fill-rule="evenodd" clip-rule="evenodd" d="M468.685 361.267C468.685 361.267 468.719 361.372 468.76 361.637C468.813 361.901 468.838 362.269 468.853 362.766C468.871 363.749 468.668 365.258 467.789 366.984C466.914 368.702 465.31 370.553 463.033 372.125C461.869 372.827 460.622 373.68 459.171 374.24C458.452 374.54 457.724 374.909 456.945 375.179C456.162 375.437 455.356 375.701 454.53 375.971C453.703 376.272 452.84 376.471 451.952 376.678C451.062 376.885 450.149 377.098 449.217 377.317C447.339 377.62 445.368 377.955 443.308 378.216C441.235 378.388 439.136 378.657 436.836 378.77C435.785 378.822 434.451 378.796 433.315 378.731C432.132 378.683 430.942 378.573 429.738 378.452C420.109 377.412 409.722 374.661 398.562 371.341C387.431 367.909 375.53 363.829 363.112 359.124C350.682 354.45 337.802 348.985 324.336 343.763C317.598 341.174 310.743 338.532 303.658 336.377C300.127 335.277 296.537 334.279 292.896 333.583C291.078 333.234 289.246 332.944 287.433 332.843C285.639 332.761 283.772 332.799 282.486 333.648L281.876 334.018L281.092 334.383C280.577 334.578 280.087 334.75 279.583 334.858C278.578 335.112 277.578 335.222 276.585 335.293C274.595 335.417 272.636 335.308 270.694 335.127C266.807 334.76 262.987 334.008 259.215 333.089C251.649 331.312 244.247 328.845 236.998 325.998C222.507 320.306 208.51 313.102 196.004 303.935C189.755 299.36 183.882 294.294 178.628 288.656C173.419 282.993 168.772 276.734 165.619 269.638C165.253 268.785 164.863 268.048 164.517 267.103L163.494 264.268C162.924 262.349 162.386 260.473 162.169 258.431C161.632 254.453 161.987 249.977 163.906 246.12C165.801 242.268 168.786 239.364 171.641 237.176C173.076 236.059 174.511 235.076 175.772 234.134C177.026 233.199 178.191 232.248 178.756 231.487C178.839 231.314 178.959 231.151 179.059 231.003C179.059 230.876 179.151 230.77 179.173 230.661C179.133 230.547 179.218 230.477 179.191 230.334C179.133 230.181 179.149 230.049 179.108 229.864C179.006 229.655 178.917 229.443 178.842 229.223C178.768 229.002 178.539 228.734 178.402 228.487C178.151 227.986 177.652 227.456 177.241 226.932C175.415 224.831 173.066 222.855 170.728 220.977C166 217.252 160.959 213.887 156.165 210.872C146.557 204.785 137.138 200.162 128.523 196.723C124.207 195.011 120.095 193.567 116.25 192.274C112.403 190.984 108.819 189.851 105.619 188.56C102.434 187.252 99.5625 185.812 97.519 183.857C95.4349 181.95 94.3342 179.723 93.8147 177.922C93.3207 176.1 93.1476 174.687 93.0873 173.737C93.0286 172.789 93 172.3 93 172.3L93.6565 172.247C93.6565 172.247 93.7379 172.718 93.8915 173.63C94.0466 174.537 94.3658 175.876 94.9952 177.499C95.6533 179.106 96.7661 180.958 98.7237 182.45C100.633 183.99 103.353 185.092 106.497 186.072C112.836 187.963 120.968 189.594 130.003 192.642C139.065 195.612 148.992 199.951 159.216 205.823C164.321 208.808 169.441 211.979 174.66 215.806C177.256 217.743 179.848 219.805 182.308 222.527C182.912 223.256 183.537 223.908 184.084 224.829C184.358 225.284 184.659 225.654 184.898 226.187C185.138 226.718 185.368 227.259 185.584 227.804C185.766 228.403 185.876 229.094 185.983 229.745C186.064 230.412 185.968 231.172 185.904 231.877C185.782 232.573 185.522 233.233 185.284 233.894C184.992 234.472 184.659 235.006 184.32 235.548C182.894 237.467 181.382 238.586 179.986 239.702C178.574 240.795 177.231 241.749 175.997 242.748C173.48 244.696 171.448 246.785 170.239 249.221C169.031 251.644 168.748 254.502 169.135 257.542C169.286 259.049 169.726 260.631 170.126 262.165L170.878 264.43C171.125 265.191 171.555 266.074 171.885 266.89C174.483 273.13 178.581 278.977 183.332 284.366C188.121 289.752 193.634 294.679 199.511 299.256C211.341 308.329 224.511 316.259 238.404 322.66C245.37 325.806 252.518 328.602 259.832 330.701C263.494 331.705 267.2 332.541 270.918 332.998C272.775 333.219 274.641 333.316 276.46 333.225C278.289 333.103 280.021 332.852 281.445 331.921C282.365 331.302 283.526 331.051 284.52 330.923C285.547 330.796 286.543 330.788 287.525 330.829C289.49 330.914 291.396 331.194 293.277 331.528C297.034 332.221 300.689 333.157 304.312 334.102C311.531 336.087 318.599 338.204 325.514 340.399C339.331 344.814 352.616 349.24 365.098 353.673C377.584 358.089 389.312 362.422 400.25 365.98C411.154 369.59 421.279 372.581 430.304 374.08C432.585 374.431 434.689 374.659 436.801 374.715C438.892 374.755 441.015 374.632 443.001 374.602C444.99 374.486 446.888 374.291 448.707 374.125C450.482 373.797 452.242 373.672 453.819 373.26C457.048 372.626 459.741 371.539 461.976 370.417C464.167 369.212 465.7 367.722 466.644 366.321C467.59 364.914 467.938 363.601 468.027 362.724C468.064 362.287 468.082 361.941 468.064 361.735C468.063 361.525 468.037 361.395 468.037 361.395L468.685 361.267Z" fill="#FF5858"/>
<path fill-rule="evenodd" clip-rule="evenodd" d="M181.026 389.006C181.026 389.006 181.105 388.913 181.261 388.731C181.444 388.525 181.74 388.188 182.075 387.853C182.759 387.129 183.807 386.16 185.262 384.992C186.729 383.845 188.645 382.563 191.072 381.335C193.525 380.167 196.541 379.124 200.055 378.672C203.566 378.169 207.569 378.525 211.563 379.723C212.562 380.028 213.603 380.295 214.565 380.771C215.504 381.182 216.46 381.601 217.433 382.03C217.899 382.24 218.367 382.453 218.84 382.67C219.335 382.907 219.644 382.952 220.058 383.114C220.43 383.266 220.866 383.369 221.31 383.471C221.747 383.591 222.189 383.69 222.639 383.734C226.161 384.288 230.183 383.372 232.548 380.439C235.006 377.624 235.363 373.053 233.366 368.825C232.409 366.701 230.979 364.652 229.255 362.744C227.498 360.854 225.448 359.117 223.235 357.485C220.971 355.913 218.583 354.396 216.001 353.084L215.045 352.572C215.045 352.572 214.863 352.479 215.026 352.557L214.897 352.498L214.64 352.384L214.123 352.153C213.436 351.844 212.747 351.535 212.054 351.224C210.685 350.676 209.425 350.275 208.055 349.826C202.467 348.237 196.379 347.755 190.223 348.366C184.065 349.023 177.869 350.79 171.919 353.423C159.977 358.682 149.177 367.553 140.543 378.391C131.845 389.225 125.359 402.087 121.064 415.618C118.889 422.382 117.247 429.332 116.169 436.348L115.734 438.974L115.415 441.613C115.22 443.359 114.962 445.162 114.82 446.858C114.572 450.417 114.275 453.976 114.301 457.444C114.168 460.926 114.421 464.43 114.551 467.899C114.869 471.361 115.125 474.816 115.69 478.21C116.683 485.018 118.164 491.682 120.172 498.067C122.134 504.464 124.477 510.639 127.24 516.468C129.95 522.318 132.961 527.884 136.244 533.081C142.699 543.559 150.112 552.606 157.461 560.427C164.891 568.185 172.352 574.661 179.314 579.928C186.286 585.188 192.759 589.229 198.229 592.287C203.711 595.334 208.218 597.341 211.297 598.68C214.42 599.922 216.085 600.585 216.085 600.585C216.085 600.585 214.41 599.947 211.269 598.75C208.17 597.454 203.631 595.51 198.095 592.535C192.57 589.551 186.024 585.594 178.952 580.418C171.895 575.231 164.31 568.837 156.724 561.143C149.223 553.384 141.628 544.38 134.962 533.901C131.573 528.702 128.452 523.121 125.623 517.24C122.744 511.381 120.28 505.157 118.195 498.693C116.065 492.24 114.463 485.489 113.354 478.575C112.731 475.126 112.416 471.613 112.044 468.088C111.86 464.549 111.554 461.003 111.637 457.399C111.566 453.777 111.814 450.241 112.011 446.681C112.138 444.821 112.368 443.079 112.543 441.269L112.83 438.576L113.235 435.894C114.234 428.726 115.808 421.6 117.937 414.638C122.142 400.709 128.624 387.353 137.495 375.97C146.303 364.587 157.452 355.109 170.079 349.321C176.371 346.429 182.998 344.424 189.695 343.612C196.39 342.846 203.132 343.265 209.419 344.961C210.981 345.434 212.644 345.968 214.096 346.534C214.794 346.835 215.489 347.133 216.181 347.432L216.701 347.656L216.959 347.767L217.089 347.822L217.322 347.936L218.356 348.469C221.134 349.834 223.764 351.442 226.283 353.145C228.765 354.918 231.115 356.844 233.209 359.033C235.272 361.251 237.086 363.725 238.388 366.504C239.682 369.269 240.471 372.375 240.26 375.523C240.087 378.65 238.954 381.752 236.989 384.106C236.054 385.325 234.876 386.284 233.679 387.144C232.433 387.921 231.136 388.59 229.786 388.997C227.097 389.864 224.345 389.994 221.82 389.651C221.177 389.588 220.562 389.464 219.958 389.314C219.351 389.18 218.751 389.042 218.135 388.815C217.557 388.613 216.846 388.401 216.4 388.192C215.924 387.984 215.453 387.778 214.985 387.572C214.084 387.192 213.201 386.817 212.333 386.451C211.523 386.053 210.682 385.868 209.872 385.634C206.631 384.716 203.55 384.483 200.854 384.92C198.154 385.312 195.826 386.145 193.894 387.093C191.988 388.101 190.456 389.15 189.285 390.091C188.133 391.049 187.291 391.843 186.791 392.394C186.514 392.678 186.383 392.843 186.271 392.966C186.141 393.12 186.075 393.2 186.075 393.2L181.026 389.006Z" fill="#FF5858"/>
</svg>
