<svg width="184" height="184" viewBox="0 0 184 184" fill="none" xmlns="http://www.w3.org/2000/svg">
<g clip-path="url(#clip0_43_4158)">
<path d="M92 184C142.81 184 184 142.81 184 92C184 41.1898 142.81 0 92 0C41.1898 0 0 41.1898 0 92C0 142.81 41.1898 184 92 184Z" fill="#F0F0F0"/>
<path d="M-0.00317383 92.0017C-0.00317383 131.559 24.9633 165.28 59.997 178.28V5.72437C24.9633 18.723 -0.00317383 52.4453 -0.00317383 92.0017Z" fill="#6DA544"/>
<path d="M183.999 92.0017C183.999 52.4453 159.033 18.723 123.999 5.72437V178.28C159.033 165.28 183.999 131.559 183.999 92.0017Z" fill="#6DA544"/>
</g>
<defs>
<clipPath id="clip0_43_4158">
<rect width="184" height="184" fill="white"/>
</clipPath>
</defs>
</svg>
