<svg width="277" height="201" viewBox="0 0 277 201" fill="none" xmlns="http://www.w3.org/2000/svg">
<path d="M276.375 100.72C276.375 58.6412 242.263 24.5295 200.185 24.5295H76.375C34.2961 24.5295 0.184448 58.6412 0.184448 100.72V124.53C0.184448 166.608 34.2961 200.72 76.3749 200.72H200.184C242.263 200.72 276.375 166.608 276.375 124.53V100.72Z" fill="#01AAD5"/>
<rect x="187.401" y="6.67236" width="14.1898" height="2.78483" transform="rotate(32.6414 187.401 6.67236)" fill="white"/>
<rect x="211.037" y="62.9136" width="18.4741" height="4.92701" transform="rotate(-30.1116 211.037 62.9136)" fill="#E50A3E"/>
<rect x="244.523" y="31.7424" width="9.90543" height="4.92701" transform="rotate(37.6414 244.523 31.7424)" fill="#FFB21D"/>
<mask id="mask0_43_2222" style="mask-type:alpha" maskUnits="userSpaceOnUse" x="0" y="0" width="277" height="201">
<rect width="276.191" height="200" rx="76.1905" transform="matrix(-1 0 0 1 276.375 0.719971)" fill="#01AAD5"/>
</mask>
<g mask="url(#mask0_43_2222)">
<rect x="88.668" y="79.6924" width="14.1898" height="2.78483" transform="rotate(-106.554 88.668 79.6924)" fill="white"/>
<rect x="287.827" y="84.8669" width="14.1898" height="7.06918" transform="rotate(-172.307 287.827 84.8669)" fill="#F2D1BB"/>
<rect x="154.247" y="108.781" width="14.1898" height="7.06918" transform="rotate(-167.307 154.247 108.781)" fill="white"/>
<rect x="107.529" y="21.6755" width="18.4741" height="4.92701" transform="rotate(-169.307 107.529 21.6755)" fill="#E50A3E"/>
<rect x="61.8125" y="23.3879" width="9.90543" height="4.92701" transform="rotate(-101.554 61.8125 23.3879)" fill="#FFB21D"/>
<rect x="101.28" y="38.4678" width="12.0476" height="7.06918" transform="rotate(-136.554 101.28 38.4678)" fill="#FFB21D"/>
<rect x="51.334" y="77.2871" width="5.62107" height="2.78483" transform="rotate(-66.5544 51.334 77.2871)" fill="#FFB21D"/>
<ellipse cx="81.4851" cy="135.734" rx="3.38464" ry="3.38464" transform="rotate(91.6925 81.4851 135.734)" fill="#E50A3E"/>
<ellipse cx="222.3" cy="157.039" rx="1.24246" ry="1.24246" transform="rotate(91.6925 222.3 157.039)" fill="white"/>
<ellipse cx="215.687" cy="163.274" rx="3.38464" ry="3.38464" transform="rotate(91.6925 215.687 163.274)" fill="white"/>
<ellipse cx="149.788" cy="108.82" rx="4.45573" ry="4.45573" transform="rotate(91.6925 149.788 108.82)" fill="#FFB21D"/>
<ellipse cx="9.99311" cy="88.7639" rx="2.31355" ry="2.31355" transform="rotate(-9.55445 9.99311 88.7639)" fill="#E50A3E"/>
<ellipse cx="144.819" cy="59.3818" rx="4.45573" ry="4.45573" transform="rotate(91.6925 144.819 59.3818)" fill="#FFB21D"/>
<ellipse cx="212.264" cy="97.8074" rx="2.31355" ry="2.31355" transform="rotate(91.6925 212.264 97.8074)" fill="#E50A3E"/>
<ellipse cx="34.9568" cy="42.2051" rx="3.38464" ry="3.38464" transform="rotate(91.6925 34.9568 42.2051)" fill="white"/>
<path d="M98.8063 78.2855L101.009 77.136L103.106 78.4692L103 80.9518L100.797 82.1014L98.7003 80.7682L98.8063 78.2855Z" fill="#F2D1BB"/>
<path d="M61.8985 45.3341L60.7866 48.6678L57.4529 47.5559L58.5648 44.2222L61.8985 45.3341Z" fill="#E50A3E"/>
<path d="M41.4569 126.532L51.3228 126.264L46.6217 134.942L41.4569 126.532Z" fill="#FFB21D"/>
<path d="M240.756 151.285L244.747 150.041L247.163 153.452L244.665 156.804L240.706 155.465L240.756 151.285Z" fill="white"/>
<path d="M147.934 20.7262L145.893 16.9368L150.195 17.064L147.934 20.7262Z" fill="#F2D1BB"/>
<path d="M100.574 199.728L99.9905 196.263L103.456 195.68L104.039 199.145L100.574 199.728Z" fill="white"/>
<path d="M188.687 159.773C192.979 150.003 203.341 129.754 210.445 126.912C219.327 123.36 226.432 121.139 229.54 118.031C232.648 114.923 236.645 113.146 238.865 115.367C240.642 117.143 231.908 123.804 227.32 126.912C227.764 127.8 229.185 129.488 231.316 129.132C233.981 128.688 253.963 128.688 260.624 127.8C267.285 126.912 268.173 130.909 268.173 131.797C268.173 132.685 257.516 133.573 252.187 134.461C248.809 135.024 245.951 134.881 244.321 134.65C248.782 135.48 257.616 137.145 264.177 138.458C273.058 140.234 273.058 142.898 272.614 144.23C272.259 145.296 260.92 144.082 255.296 143.342C259.588 144.526 268.173 147.428 268.173 149.559C268.173 151.691 248.339 147.487 238.421 145.119C243.898 148.819 254.851 156.664 254.851 158.44C254.851 160.661 253.075 161.549 251.743 160.661C250.411 159.773 237.977 148.671 226.432 148.671C214.886 148.671 210.445 151.335 207.781 159.773C205.65 166.522 200.528 170.726 198.012 171.762L188.687 159.773Z" fill="#E5A072"/>
<path d="M227.32 126.912C229.393 125.432 234.07 121.85 236.202 119.363" stroke="black" stroke-width="1.42099" stroke-linecap="round"/>
<path d="M238.422 144.675C246.859 147.043 264.266 151.513 266.398 150.447C269.062 149.115 268.174 148.671 260.625 145.119C254.586 142.277 245.379 140.086 241.53 139.346" stroke="black" stroke-width="1.42099" stroke-linecap="round"/>
<path d="M69.2348 116.255L75.8957 145.119L63.4618 156.664C60.2054 145.711 52.4491 122.738 47.4757 118.475C41.2588 113.146 36.8182 114.034 25.7167 112.702C14.6152 111.37 12.839 110.926 13.2831 108.706C13.6383 106.929 26.4568 106.485 32.8217 106.485C23.7925 103.525 5.55642 96.9825 4.84592 94.4958C4.13542 92.009 7.21428 91.9794 8.84252 92.2755C5.7341 90.9433 -0.9268 90.0552 4.40192 86.5027C8.66489 83.6607 23.6445 90.0552 30.6014 93.6076C28.5292 91.6834 22.8749 86.6803 16.8357 82.0621C9.28666 76.2893 14.1713 76.7334 18.1679 78.0655C22.1644 79.3977 48.808 97.6042 51.9164 97.6042C55.0248 97.6042 54.1368 98.0482 50.1402 90.4992C46.1437 82.9502 48.364 80.2858 52.3605 82.5061C55.5578 84.2824 57.2452 89.4631 57.6893 91.8314C59.4655 93.7557 63.9061 98.9364 67.4586 104.265C71.0111 109.594 70.1229 114.478 69.2348 116.255Z" fill="#E5A072"/>
<path d="M2.62549 90.0552C9.28639 91.8314 24.6509 96.0944 32.8216 98.9364" stroke="#232323" stroke-width="1.42099" stroke-linecap="round"/>
<path d="M72.7873 133.129C71.6031 126.616 70.7446 112.08 76.7838 106.041C82.7467 100.078 106.805 96.2223 118.525 94.9859C132.883 89.0497 165.596 80.9962 181.582 96.2719C197.568 111.548 205.117 124.544 206.893 129.132L192.239 157.552L204.229 165.101L207.781 159.328C212.755 162.17 215.478 167.321 216.218 169.542L202.897 185.084C207.515 195.741 200.676 201.958 196.68 203.734C193.719 207.583 186.289 216.879 180.25 223.273C174.21 229.667 164.411 227.714 160.267 225.937C152.096 232.332 141.172 234.819 136.732 235.263C98.7202 241.302 80.3361 226.233 75.8955 217.944C73.764 215.813 74.4153 211.135 75.0074 209.063C64.35 196.985 63.1658 181.827 63.9059 175.759C61.6856 173.686 55.8241 167.321 50.1402 158.44C44.4562 149.559 52.8045 140.826 57.6892 137.569L62.1298 152.667C74.5634 144.852 74.4155 136.385 72.7873 133.129Z" fill="#FFB21D"/>
<path d="M177.141 146.895C170.629 158.736 157.603 184.196 157.603 191.301C151.83 201.662 144.991 223.362 163.82 227.27C169 229.342 182.648 227.714 195.792 204.623" stroke="black" stroke-width="1.42099" stroke-linecap="round"/>
<path d="M109.653 96.1273C115.01 111.25 128.877 131.662 154.05 125.136C170.773 120.8 177.808 107.956 180.069 94.9348C163.612 81.487 132.444 89.2313 118.525 94.9859C116.029 95.2492 112.974 95.6313 109.653 96.1273Z" fill="#F2D1BB"/>
<path d="M106.536 117.143C106.536 123.952 108.667 140.234 117.193 150.891" stroke="#232323" stroke-width="1.42099" stroke-linecap="round"/>
<path d="M63.9058 175.759C63.4617 188.192 67.7247 213.415 88.3291 214.836C108.933 216.257 109.348 195.593 106.98 185.084C106.832 166.286 103.25 124.514 90.1054 107.818" stroke="#232323" stroke-width="1.42099" stroke-linecap="round"/>
<path d="M122.966 69.6284C122.226 71.1086 121.101 74.6019 122.522 76.7334" stroke="#232323" stroke-width="1.42099" stroke-linecap="round"/>
<path d="M148.722 70.9607C149.462 72.4409 150.587 75.9342 149.166 78.0656" stroke="#232323" stroke-width="1.42099" stroke-linecap="round"/>
<path d="M135.4 119.363C125.808 114.745 117.489 98.7884 114.529 91.3874C105.292 68.2963 114.529 35.8799 120.302 22.5581C124.742 20.6339 137.886 17.8511 154.938 22.1141C171.99 26.377 170.628 85.4666 167.816 114.478C161.007 118.031 144.991 123.981 135.4 119.363Z" fill="#E5A072"/>
<ellipse opacity="0.3" cx="122.227" cy="62.5051" rx="4.6791" ry="2.21308" transform="rotate(4.89398 122.227 62.5051)" fill="#E50A3E"/>
<ellipse opacity="0.3" cx="148.244" cy="63.7956" rx="4.6791" ry="2.21308" transform="rotate(4.89398 148.244 63.7956)" fill="#E50A3E"/>
<path d="M158.595 118.324C153.392 120.053 147.317 121.373 141.941 120.98C145.523 115.579 149.002 107.587 151.386 95.8279C145.613 100.121 132.291 101.69 121.634 84.2824C122.512 85.0933 123.35 85.8939 124.161 86.6701C128.685 90.9949 132.417 94.5633 138.064 94.9398C147.902 95.5957 154.938 86.9467 162.043 72.7368L158.595 118.324Z" fill="#BE693B"/>
<path d="M145.531 80.8793C143.194 83.1738 139.219 84.7175 134.688 84.1727C130.986 83.7287 128.309 82.6103 126.534 81.195C123.7 78.935 123.158 75.9227 124.39 73.6729C125.259 72.0875 126.76 71.7127 128.405 71.7531C129.607 71.7747 130.892 72.024 132.061 72.1783C134.322 72.4708 138.159 68.9959 142.621 70.4141C143.612 70.7298 144.635 71.2875 145.677 72.1783C148.71 74.7755 148.149 78.3009 145.53 80.8793H145.531Z" fill="#232323"/>
<path d="M134.688 84.1727C139.22 84.7176 143.194 83.1739 145.531 80.8794C145.782 80.6321 146.015 80.376 146.227 80.1129C143.59 78.7032 139.814 77.9098 135.661 78.0913C131.83 78.2618 128.396 79.2311 125.925 80.665C126.115 80.8456 126.318 81.0225 126.535 81.195C128.309 82.6104 130.986 83.7288 134.688 84.1727Z" fill="#E50A3E"/>
<path d="M127.055 75.5238C129.365 76.0466 136.84 77.3725 143.695 74.5123V74.5139C144.037 74.3706 144.232 74.0008 144.171 73.6311L143.716 70.8594C143.347 70.676 142.982 70.529 142.621 70.4141C139.852 69.5338 137.323 70.5389 135.262 71.3579C134.003 71.8583 132.919 72.2892 132.062 72.1783C131.752 72.1373 131.433 72.0897 131.11 72.0414C130.217 71.9077 129.289 71.769 128.406 71.7531C127.856 71.7396 127.322 71.7725 126.823 71.8814L126.44 74.6165C126.381 75.0351 126.647 75.4309 127.055 75.5238Z" fill="white"/>
<path d="M135.4 48.3135C134.807 52.014 133.002 60.0367 130.515 62.5234C127.406 65.6318 132.291 68.7402 135.844 67.8521" stroke="#232323" stroke-width="1.77624" stroke-linecap="round"/>
<path d="M156.506 42.4263L157.389 43.6634C157.827 44.2759 157.35 45.126 156.598 45.0919C149.048 44.7497 144.031 45.8572 141.85 46.6888C141.449 46.8418 140.966 46.7277 140.878 46.3077C140.719 45.559 140.954 44.4626 142.504 43.429C144.55 42.0651 152.486 41.8194 155.87 42.0636C156.126 42.0821 156.356 42.217 156.506 42.4263Z" fill="#232323"/>
<path d="M117.247 40.4493L116.286 41.6269C115.81 42.21 116.231 43.0891 116.984 43.1035C124.54 43.2481 129.475 44.6764 131.597 45.6467C131.988 45.8251 132.477 45.7424 132.593 45.329C132.799 44.592 132.635 43.4828 131.155 42.3515C129.201 40.8587 121.297 40.1025 117.905 40.1283C117.648 40.1302 117.41 40.2501 117.247 40.4493Z" fill="#232323"/>
<mask id="mask1_43_2222" style="mask-type:alpha" maskUnits="userSpaceOnUse" x="141" y="43" width="20" height="13">
<path d="M159.105 55.6678C155.668 56.3553 147.381 55.2967 143.093 54.4228C142.828 54.369 142.604 54.1979 142.494 53.9512C141.239 51.1155 140.334 45.3737 147.116 43.6782C155.997 41.4579 163.546 54.7797 159.105 55.6678Z" fill="#232323"/>
</mask>
<g mask="url(#mask1_43_2222)">
<ellipse cx="149.165" cy="51.8661" rx="4.88466" ry="4.88466" fill="white"/>
<ellipse cx="150.053" cy="51.866" rx="3.10842" ry="3.10842" fill="#232323"/>
</g>
<mask id="mask2_43_2222" style="mask-type:alpha" maskUnits="userSpaceOnUse" x="117" y="42" width="20" height="14">
<path d="M135.126 54.7796C131.689 55.4671 123.402 54.4085 119.114 53.5346C118.849 53.4808 118.625 53.3097 118.515 53.063C117.26 50.2273 116.355 44.4856 123.137 42.79C132.018 40.5697 139.567 53.8915 135.126 54.7796Z" fill="#232323"/>
</mask>
<g mask="url(#mask2_43_2222)">
<ellipse cx="125.186" cy="50.9779" rx="4.88466" ry="4.88466" fill="white"/>
<ellipse cx="126.074" cy="50.978" rx="3.10842" ry="3.10842" fill="#232323"/>
</g>
<path d="M144.281 54.9744C146.205 55.1224 150.675 55.596 153.162 56.3065" stroke="#232323" stroke-width="1.42099" stroke-linecap="round"/>
<path d="M120.302 54.0864C122.226 54.2344 126.696 54.7081 129.183 55.4186" stroke="#232323" stroke-width="1.42099" stroke-linecap="round"/>
<path d="M133.623 23.0021C127.851 21.966 116.039 25.1336 114.973 46.0933C113.641 72.2928 115.861 77.6215 123.854 87.8349L123.41 93.6077C116.009 94.9398 100.141 97.693 95.8784 98.0483C99.4309 89.1671 106.713 68.4739 107.424 56.7507C108.312 42.0967 108.756 6.12788 140.284 1.68728C146.945 -0.53302 162.843 -0.355395 173.145 18.1175C186.023 41.2086 192.239 110.926 192.683 118.475C193.128 126.024 193.572 142.898 195.792 145.119L190.907 140.234C188.095 145.711 180.516 158.529 172.701 165.989C164.885 173.45 154.938 177.979 150.942 179.311C152.422 178.423 155.471 176.292 155.827 174.871C156.271 173.094 146.945 174.427 145.169 160.661C144.203 153.175 146.055 148.411 148.13 145.756C144.28 149.902 140.283 157.95 143.393 169.542C141.913 168.506 139.485 162.97 141.617 149.115C144.281 131.797 155.382 123.804 158.935 98.4923C162.487 73.1809 160.267 40.7645 150.054 30.9952C139.84 21.2259 134.512 23.1224 133.623 23.0021Z" fill="#232323" stroke="#232323" stroke-width="1.77624" stroke-linecap="round"/>
<path d="M13.2832 79.3977C19.352 84.2824 32.5554 94.4069 36.8184 95.8279" stroke="#232323" stroke-width="1.42099" stroke-linecap="round"/>
<path d="M49.6958 82.0621C50.7319 81.9141 53.3371 82.595 55.4686 86.5027C57.6001 90.4104 58.429 92.5715 58.577 93.1636C63.1656 97.6042 71.7212 108.439 69.2344 116.255L69.6785 118.031C68.9384 122.027 65.2379 128.155 56.3567 120.695" stroke="#232323" stroke-width="1.42099" stroke-linecap="round"/>
<path d="M49.2483 156.808C45.4676 148.508 53.1042 140.626 57.6892 137.57L62.1298 152.668C62.2731 152.578 62.4148 152.487 62.5548 152.397L62.5738 152.668C61.0944 154.716 56.6929 157.657 49.2483 156.808Z" fill="#DE8845"/>
<path d="M194.712 152.757L192.239 157.552L204.229 165.101L207.781 159.328C212.755 162.17 215.478 167.322 216.218 169.542L214.936 171.038C209.114 167.766 190.791 158.304 190.019 154.444C189.406 151.379 192.271 152.063 194.712 152.757Z" fill="#DE8845"/>
<path d="M207.337 160.661C207.929 157.7 210.535 151.335 216.219 149.559C221.903 147.783 228.356 148.819 230.873 149.559" stroke="black" stroke-width="1.42099" stroke-linecap="round"/>
<path d="M273.279 143.786C273.279 141.566 268.838 139.346 260.845 137.57C254.451 136.149 246.931 134.905 243.971 134.461" stroke="black" stroke-width="1.42099" stroke-linecap="round"/>
<path d="M62.5735 152.668C59.3171 142.898 52.1825 122.827 49.6958 120.695" stroke="#232323" stroke-width="1.42099" stroke-linecap="round"/>
<path fill-rule="evenodd" clip-rule="evenodd" d="M160.663 105.444C160.156 102.835 157.631 101.13 155.022 101.636L95.3844 113.206C92.7756 113.712 91.0709 116.237 91.5771 118.846L105.438 190.294C105.944 192.903 108.469 194.607 111.078 194.101L114.025 193.53L110.19 194.274C108.485 194.604 107.778 196.656 108.916 197.967C110.055 199.278 112.186 198.865 112.751 197.223L114.025 193.53C114.028 193.529 114.032 193.53 114.034 193.533L115.31 195.001C117.019 196.968 120.216 196.348 121.065 193.885L121.7 192.043C121.701 192.041 121.702 192.04 121.704 192.04C121.706 192.039 121.707 192.04 121.709 192.041L122.991 193.517C124.697 195.482 127.892 194.859 128.74 192.399C129.134 191.256 130.108 190.409 131.295 190.179L135.141 189.433C136.328 189.203 137.548 189.624 138.341 190.536C140.047 192.501 143.243 191.884 144.091 189.424L144.728 187.576C144.729 187.574 144.731 187.573 144.732 187.572C144.734 187.572 144.736 187.573 144.737 187.574L146.015 189.045C147.723 191.012 150.921 190.391 151.77 187.928L152.405 186.086C152.405 186.085 152.407 186.083 152.408 186.083C152.41 186.083 152.412 186.083 152.413 186.085L153.694 187.559C155.401 189.524 158.596 188.905 159.444 186.443L160.081 184.597C160.081 184.596 160.083 184.594 160.085 184.594C160.086 184.594 160.088 184.594 160.089 184.596L161.368 186.068C163.076 188.034 166.273 187.414 167.121 184.952L167.757 183.108C167.758 183.106 167.759 183.105 167.761 183.105C167.763 183.104 167.764 183.105 167.766 183.106L169.048 184.582C170.754 186.547 173.948 185.927 174.796 183.467L175.433 181.618C175.434 181.617 175.435 181.616 175.436 181.616C175.438 181.615 175.44 181.613 175.439 181.611L160.663 105.444ZM133.218 189.806C131.513 190.137 130.806 192.189 131.945 193.499C133.083 194.81 135.214 194.397 135.78 192.755C136.346 191.114 134.923 189.475 133.218 189.806Z" fill="white"/>
<rect opacity="0.5" x="97.3496" y="120.177" width="59.5469" height="4.81187" rx="2.40593" transform="rotate(-10.979 97.3496 120.177)" fill="#D9D9D9"/>
<rect opacity="0.5" x="106.285" y="166.234" width="59.5469" height="4.81187" rx="2.40593" transform="rotate(-10.979 106.285 166.234)" fill="#D9D9D9"/>
<rect opacity="0.5" x="109.034" y="180.406" width="59.5469" height="4.81187" rx="2.40593" transform="rotate(-10.979 109.034 180.406)" fill="#D9D9D9"/>
<rect opacity="0.5" x="98.7241" y="127.263" width="59.5469" height="4.81187" rx="2.40593" transform="rotate(-10.979 98.7241 127.263)" fill="#D9D9D9"/>
<rect opacity="0.5" x="107.659" y="173.32" width="59.5469" height="4.81187" rx="2.40593" transform="rotate(-10.979 107.659 173.32)" fill="#D9D9D9"/>
<path fill-rule="evenodd" clip-rule="evenodd" d="M143.757 137.289C144.915 135.572 144.462 133.235 142.746 132.077C141.031 130.918 138.696 131.371 137.538 133.088L129.499 145.005L124.829 141.851C123.111 140.691 120.779 141.143 119.62 142.862C118.461 144.58 118.913 146.914 120.631 148.074L128.406 153.326C129.2 153.863 130.125 154.054 131.005 153.935C132.032 153.798 132.997 153.239 133.622 152.313L143.757 137.289Z" fill="#23BA3B"/>
</g>
<rect width="14.1822" height="7.0681" transform="matrix(0.881896 -0.471444 0.470938 0.882166 191.491 29.8894)" fill="#FFB21D"/>
</svg>
