<svg width="57" height="56" viewBox="0 0 57 56" fill="none" xmlns="http://www.w3.org/2000/svg">
<circle cx="28.5" cy="28" r="28" fill="#23A26D" fill-opacity="0.12"/>
<path d="M27.9998 14.6667C20.6532 14.6667 14.6665 20.6534 14.6665 28.0001C14.6665 35.3467 20.6532 41.3334 27.9998 41.3334C35.3465 41.3334 41.3332 35.3467 41.3332 28.0001C41.3332 20.6534 35.3465 14.6667 27.9998 14.6667ZM34.3732 24.9334L26.8132 32.4934C26.6265 32.6801 26.3732 32.7867 26.1065 32.7867C25.8398 32.7867 25.5865 32.6801 25.3998 32.4934L21.6265 28.7201C21.2398 28.3334 21.2398 27.6934 21.6265 27.3067C22.0132 26.9201 22.6532 26.9201 23.0398 27.3067L26.1065 30.3734L32.9598 23.5201C33.3465 23.1334 33.9865 23.1334 34.3732 23.5201C34.7598 23.9067 34.7598 24.5334 34.3732 24.9334Z" fill="#23A26D"/>
</svg>
